<svg id="_001---Bilingual" data-name="001---Bilingual" xmlns="http://www.w3.org/2000/svg" width="100" height="100" viewBox="0 0 100 100">
  <path id="Shape" d="M281.192,168.866h1.667a1.667,1.667,0,0,0,0-3.333h-6.667V162.2a1.667,1.667,0,1,0-3.333,0v3.333h-6.667a1.667,1.667,0,0,0,0,3.333h11.667V172.2a8.333,8.333,0,0,1-3.333,6.667,8.333,8.333,0,0,1-2.833-3.85,1.667,1.667,0,0,0-3.133,1.133,11.433,11.433,0,0,0,2.633,4.217,24.983,24.983,0,0,1-5,.167,1.667,1.667,0,0,0,0,3.333c3.483,0,5.483.217,8.333-1.15,2.883,1.367,4.817,1.15,8.333,1.15a1.667,1.667,0,0,0,0-3.333,21.955,21.955,0,0,1-5-.183c3.767-3.85,3.333-7.867,3.333-11.483Z" transform="translate(-194.525 -108.866)" fill="#48c2c8"/>
  <path id="Shape-2" data-name="Shape" d="M-92.208,99h56.667a1.667,1.667,0,0,0,1.667-1.667V96a11.5,11.5,0,0,0-5.933-10.083l-11.35-7.1a5.267,5.267,0,0,1-2.717-4.55V69a23.984,23.984,0,0,0,6.367-10.8,4.367,4.367,0,0,0,1.967-3.6V48.85a4.467,4.467,0,0,0-1.667-3.183v-8.45c0-.55-1.167-13.217-16.667-13.217S-80.542,36.783-80.542,37.433v8.233a4.467,4.467,0,0,0-1.667,3.2v5.75a4.367,4.367,0,0,0,1.983,3.633A23.585,23.585,0,0,0-73.875,69v5.267A5.35,5.35,0,0,1-76.775,79l-11,6.9a11.667,11.667,0,0,0-6.1,10.1v1.333A1.667,1.667,0,0,0-92.208,99Zm6.117-10.3,11-6.917a8.584,8.584,0,0,0,4.55-7.517V69a3.334,3.334,0,0,0-1.067-2.45,20.35,20.35,0,0,1-5.367-9.067c-.45-1.983-1.9-1.817-1.9-2.883V48.883a1.965,1.965,0,0,1,.567-.75,3.334,3.334,0,0,0,1.1-2.467V37.55c0-1.05,1.017-10.217,13.333-10.217s13.333,9.083,13.333,10v8.333c0,2.05,1.483,2.517,1.667,3.183V54.6a.984.984,0,0,1-.467.833,3.333,3.333,0,0,0-1.433,2.05,20.35,20.35,0,0,1-5.367,9.067A3.334,3.334,0,0,0-57.208,69v5.267a8.45,8.45,0,0,0,4.367,7.417l11.35,7.117a8.233,8.233,0,0,1,4.283,6.867H-90.542a8.333,8.333,0,0,1,4.45-6.967Z" transform="translate(93.875 1)" fill="#48c2c8"/>
  <path id="Shape-3" data-name="Shape" d="M203.845,126.4H180.511a8.333,8.333,0,0,0-8.333,8.333v2.433l-9.25,6.183a1.667,1.667,0,0,0,0,2.767l9.25,6.183v2.433a8.333,8.333,0,0,0,8.333,8.333h23.333a8.333,8.333,0,0,0,8.333-8.333v-20A8.333,8.333,0,0,0,203.845,126.4Zm5,28.333a5,5,0,0,1-5,5H180.511a5,5,0,0,1-5-5V151.4a1.667,1.667,0,0,0-.75-1.383l-7.917-5.283,7.917-5.283a1.667,1.667,0,0,0,.75-1.383v-3.333a5,5,0,0,1,5-5h23.333a5,5,0,0,1,5,5Z" transform="translate(-112.178 -81.4)" fill="#48c2c8"/>
  <path id="Shape-4" data-name="Shape" d="M203.845-104H180.511a8.333,8.333,0,0,0-8.333,8.333v2.433l-9.25,6.183a1.667,1.667,0,0,0-.737,1.383,1.666,1.666,0,0,0,.737,1.383l9.25,6.183v2.433a8.333,8.333,0,0,0,8.333,8.333h23.333a8.333,8.333,0,0,0,8.333-8.333v-20A8.333,8.333,0,0,0,203.845-104Zm5,28.333a5,5,0,0,1-5,5H180.511a5,5,0,0,1-5-5V-79a1.667,1.667,0,0,0-.75-1.383l-7.917-5.283,7.917-5.283a1.667,1.667,0,0,0,.75-1.383v-3.333a5,5,0,0,1,5-5h23.333a5,5,0,0,1,5,5Z" transform="translate(-112.178 104)" fill="#48c2c8"/>
  <path id="Shape-5" data-name="Shape" d="M274.525-69.867a10,10,0,0,0-10,10V-48.2a1.667,1.667,0,0,0,1.667,1.667,1.667,1.667,0,0,0,1.667-1.667v-6.667h13.333V-48.2a1.667,1.667,0,0,0,1.667,1.667,1.667,1.667,0,0,0,1.667-1.667V-59.867A10,10,0,0,0,274.525-69.867ZM267.858-58.2v-1.667a6.667,6.667,0,0,1,6.667-6.667,6.667,6.667,0,0,1,6.667,6.667V-58.2Z" transform="translate(-194.525 76.534)" fill="#48c2c8"/>
</svg>
