<svg id="Group_147" data-name="Group 147" xmlns="http://www.w3.org/2000/svg" width="100" height="99.999" viewBox="0 0 100 99.999">
  <path id="Path_87" data-name="Path 87" d="M-55.959-29.668a1.662,1.662,0,0,0-1.178.488l-7.845,7.845h-2.95a4.993,4.993,0,0,0-4.693-3.333,5.006,5.006,0,0,0-5,5,5.006,5.006,0,0,0,5,5A4.993,4.993,0,0,0-67.932-18h3.64a1.662,1.662,0,0,0,1.178-.488l7.845-7.845h25.976v8.917L-43.3-11.191a1.669,1.669,0,0,0-.99,1.523V3.665a1.669,1.669,0,0,0,.99,1.523l15,6.667a1.678,1.678,0,0,0,.677.143,1.678,1.678,0,0,0,.677-.143l15-6.667a1.669,1.669,0,0,0,.99-1.523V-9.668a1.669,1.669,0,0,0-.99-1.523l-14.01-6.227v-8.917h5v1.667a8.343,8.343,0,0,0,8.333,8.333A1.667,1.667,0,0,0-10.959-18v-8.333H.017l7.845,7.845A1.662,1.662,0,0,0,9.04-18h3.64a4.993,4.993,0,0,0,4.693,3.333,5.006,5.006,0,0,0,5-5,5.006,5.006,0,0,0-5-5,4.993,4.993,0,0,0-4.693,3.333H9.73L1.885-29.179a1.662,1.662,0,0,0-1.178-.488h-5.07A8.043,8.043,0,0,0-2.831-33H12.682a4.993,4.993,0,0,0,4.693,3.333,5.006,5.006,0,0,0,5-5,5.006,5.006,0,0,0-5-5,4.993,4.993,0,0,0-4.693,3.333H-2.843a8.29,8.29,0,0,0-1.192-2.9L8.552-51.822A1.662,1.662,0,0,0,9.04-53v-5H20.707a1.667,1.667,0,0,0,1.667-1.667V-76.334a1.662,1.662,0,0,0-.488-1.178l-10-10A1.662,1.662,0,0,0,10.707-88H-5.96a1.667,1.667,0,0,0-1.667,1.667v26.666A1.667,1.667,0,0,0-5.96-58H5.707v4.31L-6.385-41.6a8.333,8.333,0,0,0-2.908-1.232c.043-1.725-.553-3.788-2.922-6.13a7.683,7.683,0,0,0-5.617-2.37,8.314,8.314,0,0,0-2.778.548,8.325,8.325,0,0,0-5.35-3.7V-58h11.666a1.667,1.667,0,0,0,1.667-1.667V-76.334a1.662,1.662,0,0,0-.488-1.178l-10-10A1.662,1.662,0,0,0-24.293-88H-40.959a1.667,1.667,0,0,0-1.667,1.667v26.666A1.667,1.667,0,0,0-40.959-58h11.666v3.52a8.331,8.331,0,0,0-5.35,3.7,8.314,8.314,0,0,0-2.778-.548,7.785,7.785,0,0,0-5.615,2.37c-2.37,2.342-2.967,4.4-2.923,6.13A8.32,8.32,0,0,0-48.867-41.6l-12.091-12.09V-58h11.666a1.667,1.667,0,0,0,1.667-1.667V-76.334a1.662,1.662,0,0,0-.488-1.178l-10-10A1.662,1.662,0,0,0-59.292-88H-75.958a1.667,1.667,0,0,0-1.667,1.667v26.666A1.667,1.667,0,0,0-75.958-58h11.666v5a1.662,1.662,0,0,0,.488,1.178l12.586,12.586a8.29,8.29,0,0,0-1.192,2.9H-67.932a4.993,4.993,0,0,0-4.693-3.333,5.006,5.006,0,0,0-5,5,5.006,5.006,0,0,0,5,5A4.993,4.993,0,0,0-67.932-33h15.513a8.053,8.053,0,0,0,1.532,3.333ZM-72.625-18a1.669,1.669,0,0,1-1.667-1.667,1.669,1.669,0,0,1,1.667-1.667,1.669,1.669,0,0,1,1.667,1.667A1.669,1.669,0,0,1-72.625-18ZM-40.959-7.1l11.666,5.185V7.768L-40.959,2.583Zm15,14.87V-1.918L-14.293-7.1V2.583Zm9.23-17.435-10.9,4.843-10.9-4.843,9.23-4.1v4.1h3.333v-4.1Zm34.1-11.666a1.669,1.669,0,0,1,1.667,1.667A1.669,1.669,0,0,1,17.373-18a1.669,1.669,0,0,1-1.667-1.667A1.669,1.669,0,0,1,17.373-21.334Zm-5-60.976L16.683-78h-4.31ZM-4.293-84.667H9.04v8.333a1.667,1.667,0,0,0,1.667,1.667H19.04v13.333H-4.293ZM-22.626-82.31l4.31,4.31h-4.31Zm-16.666-2.357h13.333v8.333a1.667,1.667,0,0,0,1.667,1.667h8.333v13.333H-39.292ZM-57.625-82.31l4.31,4.31h-4.31Zm-16.666-2.357h13.333v8.333a1.667,1.667,0,0,0,1.667,1.667h8.333v13.333H-74.292ZM17.373-36.334a1.669,1.669,0,0,1,1.667,1.667A1.669,1.669,0,0,1,17.373-33a1.669,1.669,0,0,1-1.667-1.667A1.669,1.669,0,0,1,17.373-36.334ZM-44.4-39.671c.057.008.223.025.28.027a1.686,1.686,0,0,0,1.365-.622,1.672,1.672,0,0,0,.313-1.467c-.332-1.258-.468-2.67,1.743-4.857A4.449,4.449,0,0,1-37.5-48a4.976,4.976,0,0,1,2.673.855,1.656,1.656,0,0,0,1.458.2,1.665,1.665,0,0,0,1.05-1.032,4.994,4.994,0,0,1,4.695-3.36,4.994,4.994,0,0,1,4.695,3.36,1.665,1.665,0,0,0,1.05,1.032,1.653,1.653,0,0,0,1.458-.2A4.985,4.985,0,0,1-17.749-48a4.622,4.622,0,0,1,3.193,1.41c2.212,2.187,2.075,3.6,1.743,4.857a1.66,1.66,0,0,0,.313,1.467,1.679,1.679,0,0,0,1.365.622.459.459,0,0,0,.175-.023,5.014,5.014,0,0,1,3.7,1.637,4.966,4.966,0,0,1,1.277,3.858,5.2,5.2,0,0,1-5.263,4.5h-1.38A1.667,1.667,0,0,0-14.293-28v8.048a5.01,5.01,0,0,1-3.333-4.715V-28a1.667,1.667,0,0,0-1.667-1.667v-2.643l2.845-2.845a1.662,1.662,0,0,0,.488-1.178v-5h-3.333v4.31l-2.845,2.845A1.662,1.662,0,0,0-22.626-33v3.333h-3.333v-15h-3.333v15h-3.333V-33a1.662,1.662,0,0,0-.488-1.178l-2.845-2.845v-4.31h-3.333v5a1.662,1.662,0,0,0,.488,1.178l2.845,2.845v2.643h-8.047a5.2,5.2,0,0,1-5.263-4.5,4.967,4.967,0,0,1,1.277-3.86,4.979,4.979,0,0,1,3.6-1.64ZM-72.625-33a1.669,1.669,0,0,1-1.667-1.667,1.669,1.669,0,0,1,1.667-1.667,1.669,1.669,0,0,1,1.667,1.667A1.669,1.669,0,0,1-72.625-33Z" transform="translate(77.625 88)" fill="#48c2c8"/>
  <path id="Path_88" data-name="Path 88" d="M266.375,312h3.333v3.333h-3.333Z" transform="translate(-194.71 -228.668)" fill="#48c2c8"/>
  <path id="Path_89" data-name="Path 89" d="M298.375,312h3.333v3.333h-3.333Z" transform="translate(-220.043 -228.668)" fill="#48c2c8"/>
  <path id="Path_90" data-name="Path 90" d="M298.375,344h3.333v3.333h-3.333Z" transform="translate(-220.043 -254.002)" fill="#48c2c8"/>
  <path id="Path_91" data-name="Path 91" d="M298.375,280h3.333v3.333h-3.333Z" transform="translate(-220.043 -203.335)" fill="#48c2c8"/>
  <path id="Path_92" data-name="Path 92" d="M42.375,312h3.333v3.333H42.375Z" transform="translate(-17.375 -228.668)" fill="#48c2c8"/>
  <path id="Path_93" data-name="Path 93" d="M10.375,312h3.333v3.333H10.375Z" transform="translate(7.958 -228.668)" fill="#48c2c8"/>
  <path id="Path_94" data-name="Path 94" d="M10.375,344h3.333v3.333H10.375Z" transform="translate(7.958 -254.002)" fill="#48c2c8"/>
  <path id="Path_95" data-name="Path 95" d="M10.375,280h3.333v3.333H10.375Z" transform="translate(7.958 -203.335)" fill="#48c2c8"/>
</svg>
