<svg id="Group_148" data-name="Group 148" xmlns="http://www.w3.org/2000/svg" width="100" height="135.213" viewBox="0 0 100 135.213">
  <g id="Group_138" data-name="Group 138" transform="translate(0)">
    <path id="Path_114" data-name="Path 114" d="M14.064-89.25H-81.974a1.981,1.981,0,0,0-1.981,1.981V6.815A1.981,1.981,0,0,0-81.974,8.8a1.981,1.981,0,0,0,1.981-1.981v-92.1H12.084v12.452a1.981,1.981,0,0,0,1.981,1.981,1.981,1.981,0,0,0,1.981-1.981V-87.269A1.981,1.981,0,0,0,14.064-89.25Z" transform="translate(83.955 89.25)" fill="#48c2c8"/>
    <path id="Path_115" data-name="Path 115" d="M14.064.4a1.981,1.981,0,0,0-1.981,1.981v105.6H-79.994V82.033a1.981,1.981,0,0,0-1.981-1.981,1.981,1.981,0,0,0-1.981,1.981v27.925a1.981,1.981,0,0,0,1.981,1.981H14.064a1.981,1.981,0,0,0,1.981-1.981V2.381A1.981,1.981,0,0,0,14.064.4Z" transform="translate(83.955 23.276)" fill="#48c2c8"/>
    <path id="Path_116" data-name="Path 116" d="M-51.629,24.055A15.337,15.337,0,0,0-36.31,39.375,15.337,15.337,0,0,0-20.99,24.055,15.337,15.337,0,0,0-36.31,8.736,15.337,15.337,0,0,0-51.629,24.055ZM-36.31,35.413A11.371,11.371,0,0,1-47.668,24.055,11.374,11.374,0,0,1-38.29,12.874V24.055a1.981,1.981,0,0,0,1.981,1.981h11.182A11.374,11.374,0,0,1-36.31,35.413Zm11.182-13.339h-9.2v-9.2A11.384,11.384,0,0,1-25.128,22.075Z" transform="translate(60.166 17.141)" fill="#48c2c8"/>
    <path id="Path_117" data-name="Path 117" d="M-45.608,343.1a1.981,1.981,0,0,0-1.981,1.981v8.537a1.981,1.981,0,0,0,1.981,1.981H-32.8a1.981,1.981,0,0,0,1.981-1.981v-8.537A1.981,1.981,0,0,0-32.8,343.1Zm10.824,8.537h-8.844v-4.575h8.844Z" transform="translate(57.193 -228.921)" fill="#48c2c8"/>
    <path id="Path_118" data-name="Path 118" d="M35.206,319.915h12.8a1.981,1.981,0,0,0,1.981-1.981V296.593a1.981,1.981,0,0,0-1.981-1.981h-12.8a1.981,1.981,0,0,0-1.981,1.981v21.342A1.981,1.981,0,0,0,35.206,319.915Zm1.981-21.342H46.03v17.38H37.186Z" transform="translate(-2.279 -193.238)" fill="#48c2c8"/>
    <path id="Path_119" data-name="Path 119" d="M116.019,234a1.981,1.981,0,0,0-1.981,1.981v37.348a1.981,1.981,0,0,0,1.981,1.981h12.8a1.981,1.981,0,0,0,1.981-1.981V235.983A1.981,1.981,0,0,0,128.824,234Zm10.824,37.348H118V237.963h8.844Z" transform="translate(-61.75 -148.635)" fill="#48c2c8"/>
    <path id="Path_120" data-name="Path 120" d="M209.639,204.547a1.981,1.981,0,0,0,1.981-1.981v-6.985a1.981,1.981,0,0,0-1.981-1.981h-12.8a1.981,1.981,0,0,0-1.981,1.981V243.6a1.981,1.981,0,0,0,1.981,1.981h12.8a1.981,1.981,0,0,0,1.981-1.981V211.809a1.981,1.981,0,1,0-3.961,0v29.808h-8.841V197.561h8.841v5A1.981,1.981,0,0,0,209.639,204.547Z" transform="translate(-121.224 -118.902)" fill="#48c2c8"/>
    <path id="Path_121" data-name="Path 121" d="M61.726-56.925H19.043a1.981,1.981,0,0,0-1.981,1.981v8.537a1.981,1.981,0,0,0,1.981,1.981H61.727a1.981,1.981,0,0,0,1.981-1.981v-8.537a1.981,1.981,0,0,0-1.981-1.981Zm-1.981,8.537H21.023v-4.575H59.746v4.575Z" transform="translate(9.615 65.462)" fill="#48c2c8"/>
    <path id="Path_122" data-name="Path 122" d="M139.338,8.736H99.856a1.981,1.981,0,0,0,0,3.961h39.482a1.981,1.981,0,0,0,0-3.961Z" transform="translate(-49.856 17.141)" fill="#48c2c8"/>
    <path id="Path_123" data-name="Path 123" d="M139.338,42.408H99.856a1.981,1.981,0,0,0,0,3.961h39.482a1.981,1.981,0,0,0,0-3.961Z" transform="translate(-49.856 -7.639)" fill="#48c2c8"/>
    <path id="Path_124" data-name="Path 124" d="M141.319,78.061a1.981,1.981,0,0,0-1.981-1.981H99.856a1.981,1.981,0,0,0,0,3.961h39.482A1.981,1.981,0,0,0,141.319,78.061Z" transform="translate(-49.856 -32.418)" fill="#48c2c8"/>
    <path id="Path_125" data-name="Path 125" d="M125.313,111.733a1.981,1.981,0,0,0-1.981-1.981H99.856a1.981,1.981,0,0,0,0,3.961h23.476A1.981,1.981,0,0,0,125.313,111.733Z" transform="translate(-49.856 -57.198)" fill="#48c2c8"/>
    <path id="Path_126" data-name="Path 126" d="M-.5,159.25H-36.516a1.981,1.981,0,0,0-1.981,1.981,1.981,1.981,0,0,0,1.981,1.981H-.5a1.981,1.981,0,0,0,1.981-1.981A1.981,1.981,0,0,0-.5,159.25Z" transform="translate(50.502 -93.624)" fill="#48c2c8"/>
    <path id="Path_127" data-name="Path 127" d="M1.479,194.9A1.981,1.981,0,0,0-.5,192.922H-36.516A1.981,1.981,0,0,0-38.5,194.9a1.981,1.981,0,0,0,1.981,1.981H-.5A1.981,1.981,0,0,0,1.479,194.9Z" transform="translate(50.502 -118.403)" fill="#48c2c8"/>
    <path id="Path_128" data-name="Path 128" d="M-14.527,228.575a1.981,1.981,0,0,0-1.981-1.981H-36.516a1.981,1.981,0,0,0-1.981,1.981,1.981,1.981,0,0,0,1.981,1.981h20.008A1.981,1.981,0,0,0-14.527,228.575Z" transform="translate(50.502 -143.183)" fill="#48c2c8"/>
  </g>
</svg>
