<svg id="Group_137" data-name="Group 137" xmlns="http://www.w3.org/2000/svg" width="100" height="93.75" viewBox="0 0 100 93.75">
  <g id="Group_102" data-name="Group 102" transform="translate(41.411 12.511)">
    <g id="Group_101" data-name="Group 101">
      <path id="Path_96" data-name="Path 96" d="M122.813-53.692h-.043A3.873,3.873,0,0,0,118.9-49.8a3.907,3.907,0,0,0,3.914,3.894,3.893,3.893,0,0,0,3.894-3.894A3.893,3.893,0,0,0,122.813-53.692Z" transform="translate(-118.899 53.692)" fill="#48c2c8"/>
    </g>
  </g>
  <g id="Group_104" data-name="Group 104" transform="translate(6.677 82.031)">
    <g id="Group_103" data-name="Group 103">
      <path id="Path_97" data-name="Path 97" d="M-56.192,302.25h-.03a2.72,2.72,0,0,0-2.718,2.734,2.744,2.744,0,0,0,2.748,2.734,2.734,2.734,0,0,0,2.734-2.734A2.734,2.734,0,0,0-56.192,302.25Z" transform="translate(58.94 -302.25)" fill="#48c2c8"/>
    </g>
  </g>
  <g id="Group_106" data-name="Group 106" transform="translate(90.625 56.25)">
    <g id="Group_105" data-name="Group 105">
      <path id="Path_98" data-name="Path 98" d="M372.438,170.25a1.563,1.563,0,0,0,0,3.125,4.689,4.689,0,0,1,2.344,8.75,1.562,1.562,0,0,0,.784,2.914,1.546,1.546,0,0,0,.781-.211,7.814,7.814,0,0,0-3.909-14.578Z" transform="translate(-370.875 -170.25)" fill="#48c2c8"/>
    </g>
  </g>
  <g id="Group_108" data-name="Group 108" transform="translate(51.562 67.914)">
    <g id="Group_107" data-name="Group 107">
      <path id="Path_99" data-name="Path 99" d="M216,230.791a1.563,1.563,0,0,0-2.116-.636l-42.188,22.712a1.562,1.562,0,0,0,1.48,2.752l42.188-22.712A1.563,1.563,0,0,0,216,230.791Z" transform="translate(-170.87 -229.969)" fill="#48c2c8"/>
    </g>
  </g>
  <g id="Group_110" data-name="Group 110" transform="translate(15.625 85.936)">
    <g id="Group_109" data-name="Group 109" transform="translate(0)">
      <path id="Path_100" data-name="Path 100" d="M24.578,326.947-11.36,322.26a1.546,1.546,0,0,0-1.75,1.347,1.559,1.559,0,0,0,1.347,1.75l35.937,4.688a1.507,1.507,0,0,0,.2.014,1.562,1.562,0,0,0,.2-3.111Z" transform="translate(13.124 -322.245)" fill="#48c2c8"/>
    </g>
  </g>
  <g id="Group_112" data-name="Group 112" transform="translate(0 46.875)">
    <g id="Group_111" data-name="Group 111">
      <path id="Path_101" data-name="Path 101" d="M-75.937,122.25H-91.562a1.561,1.561,0,0,0-1.562,1.562V166a1.561,1.561,0,0,0,1.563,1.562h15.625A1.561,1.561,0,0,0-74.375,166V123.812A1.561,1.561,0,0,0-75.937,122.25ZM-77.5,164.438H-90V125.375h12.5Z" transform="translate(93.125 -122.25)" fill="#48c2c8"/>
    </g>
  </g>
  <g id="Group_114" data-name="Group 114" transform="translate(59.376 56.343)">
    <g id="Group_113" data-name="Group 113" transform="translate(0)">
      <path id="Path_102" data-name="Path 102" d="M244.169,172.055a1.566,1.566,0,0,0-1.78-1.309l-30.183,4.594a1.563,1.563,0,0,0,.233,3.108,1.532,1.532,0,0,0,.237-.019l30.183-4.594A1.562,1.562,0,0,0,244.169,172.055Z" transform="translate(-210.879 -170.728)" fill="#48c2c8"/>
    </g>
  </g>
  <g id="Group_116" data-name="Group 116" transform="translate(53.125 54.782)">
    <g id="Group_115" data-name="Group 115">
      <path id="Path_103" data-name="Path 103" d="M181.777,162.757a1.562,1.562,0,0,0-.531,3.078,4.687,4.687,0,0,1-.808,9.3,1.563,1.563,0,1,0,0,3.125,7.812,7.812,0,0,0,1.339-15.508Z" transform="translate(-178.875 -162.734)" fill="#48c2c8"/>
    </g>
  </g>
  <g id="Group_118" data-name="Group 118" transform="translate(29.686 49.997)">
    <g id="Group_117" data-name="Group 117" transform="translate(0)">
      <path id="Path_104" data-name="Path 104" d="M85.244,143.049l-24.513-4.781a1.563,1.563,0,1,0-.6,3.067l24.513,4.781a1.512,1.512,0,0,0,.3.03,1.563,1.563,0,0,0,.3-3.1Z" transform="translate(-58.869 -138.237)" fill="#48c2c8"/>
    </g>
  </g>
  <g id="Group_120" data-name="Group 120" transform="translate(15.625 50)">
    <g id="Group_119" data-name="Group 119" transform="translate(0 0)">
      <path id="Path_105" data-name="Path 105" d="M2.5,138.25H-11.562a1.561,1.561,0,0,0-1.563,1.563,1.561,1.561,0,0,0,1.563,1.563H2.5a1.563,1.563,0,0,0,0-3.125Z" transform="translate(13.125 -138.25)" fill="#48c2c8"/>
    </g>
  </g>
  <g id="Group_122" data-name="Group 122" transform="translate(32.812 65.622)">
    <g id="Group_121" data-name="Group 121">
      <path id="Path_106" data-name="Path 106" d="M96.212,219.771l-19.655-1.528a1.562,1.562,0,0,0-.241,3.116l19.655,1.528q.061,0,.122,0a1.562,1.562,0,0,0,.119-3.12Z" transform="translate(-74.874 -218.236)" fill="#48c2c8"/>
    </g>
  </g>
  <g id="Group_124" data-name="Group 124" transform="translate(89.557 56.25)">
    <g id="Group_123" data-name="Group 123">
      <path id="Path_107" data-name="Path 107" d="M368.036,170.25a7.712,7.712,0,0,0-1.333.114,1.562,1.562,0,0,0,.262,3.1,1.526,1.526,0,0,0,.266-.023,4.862,4.862,0,0,1,.8-.067,1.563,1.563,0,1,0,0-3.125Z" transform="translate(-365.405 -170.25)" fill="#48c2c8"/>
    </g>
  </g>
  <g id="Group_126" data-name="Group 126" transform="translate(52.471 67.15)">
    <g id="Group_125" data-name="Group 125">
      <path id="Path_108" data-name="Path 108" d="M177.743,226.1a4.617,4.617,0,0,1-.489-.027,1.563,1.563,0,0,0-.33,3.108,7.815,7.815,0,0,0,.819.044,1.563,1.563,0,1,0,0-3.125Z" transform="translate(-175.526 -226.059)" fill="#48c2c8"/>
    </g>
  </g>
  <g id="Group_128" data-name="Group 128" transform="translate(28.128 0)">
    <g id="Group_127" data-name="Group 127">
      <path id="Path_109" data-name="Path 109" d="M80.23-112.716a17.071,17.071,0,0,0-12.153-5.034,17.067,17.067,0,0,0-12.152,5.034,17.068,17.068,0,0,0-5.034,12.152,17.068,17.068,0,0,0,5.034,12.153,17.067,17.067,0,0,0,12.152,5.034A17.071,17.071,0,0,0,80.23-88.411a17.071,17.071,0,0,0,5.034-12.153A17.067,17.067,0,0,0,80.23-112.716Zm-2.209,22.1A13.97,13.97,0,0,1,68.077-86.5a13.964,13.964,0,0,1-9.942-4.119,13.967,13.967,0,0,1-4.119-9.944,13.966,13.966,0,0,1,4.119-9.942,13.964,13.964,0,0,1,9.942-4.119,13.97,13.97,0,0,1,9.944,4.119,13.964,13.964,0,0,1,4.119,9.942A13.97,13.97,0,0,1,78.021-90.62Z" transform="translate(-50.891 117.75)" fill="#48c2c8"/>
    </g>
  </g>
  <g id="Group_130" data-name="Group 130" transform="translate(47.881 30.693)">
    <g id="Group_129" data-name="Group 129">
      <path id="Path_110" data-name="Path 110" d="M170.874,56.039l-2.667-2.667V50.894a1.561,1.561,0,0,0-1.562-1.562h-1.562V47.769a1.561,1.561,0,0,0-1.562-1.562h-2.478l-6.348-6.348a1.562,1.562,0,0,0-2.209,2.209l6.806,6.806a1.556,1.556,0,0,0,1.1.458h1.563v1.563a1.561,1.561,0,0,0,1.563,1.563h1.563v1.562a1.556,1.556,0,0,0,.458,1.1l3.125,3.125a1.562,1.562,0,0,0,2.209-2.209Z" transform="translate(-152.025 -39.4)" fill="#48c2c8"/>
    </g>
  </g>
  <g id="Group_132" data-name="Group 132" transform="translate(58.843 19.671)">
    <g id="Group_131" data-name="Group 131" transform="translate(0 0)">
      <path id="Path_111" data-name="Path 111" d="M226.981-.306,210.824-16.572a1.564,1.564,0,0,0-2.211-.008,1.564,1.564,0,0,0-.008,2.211L224.762,1.9a1.563,1.563,0,1,0,2.219-2.2Z" transform="translate(-208.152 17.033)" fill="#48c2c8"/>
    </g>
  </g>
  <g id="Group_134" data-name="Group 134" transform="translate(64.063 46.875)">
    <g id="Group_133" data-name="Group 133">
      <path id="Path_112" data-name="Path 112" d="M247.375,122.25H236.438a1.562,1.562,0,1,0,0,3.125h10.937a1.562,1.562,0,1,0,0-3.125Z" transform="translate(-234.875 -122.25)" fill="#48c2c8"/>
    </g>
  </g>
  <g id="Group_136" data-name="Group 136" transform="translate(75 35.938)">
    <g id="Group_135" data-name="Group 135" transform="translate(0 0)">
      <path id="Path_113" data-name="Path 113" d="M292.438,66.25a1.561,1.561,0,0,0-1.562,1.562V78.75a1.563,1.563,0,0,0,3.125,0V67.812A1.561,1.561,0,0,0,292.438,66.25Z" transform="translate(-290.875 -66.25)" fill="#48c2c8"/>
    </g>
  </g>
</svg>
