<svg id="Group_98" data-name="Group 98" xmlns="http://www.w3.org/2000/svg" width="100" height="121.926" viewBox="0 0 100 121.926">
  <g id="Group_97" data-name="Group 97" transform="translate(0 0)">
    <path id="Path_79" data-name="Path 79" d="M35.6,6.927a2.8,2.8,0,0,0,.942,4.036l4.856,2.7v5.813a2.811,2.811,0,0,0,1.742,2.59l2.391.975L44.08,24.483a2.8,2.8,0,0,0,.315,4.233l4.925,3.631V43.482a2.8,2.8,0,0,0,2.8,2.8h17.64L71.963,60.92a2.827,2.827,0,0,0,1.194,1.9,2.776,2.776,0,0,0,1.572.485,3.123,3.123,0,0,0,.63-.073l44.293-10.257a2.794,2.794,0,0,0,2.094-3.351l-4.287-18.688,2.52-11.376,14.5-17.908A2.8,2.8,0,0,0,135.1-.105V-27.847a2.942,2.942,0,0,0-.306-1.277l-9.324-18.182a2.811,2.811,0,0,0-1.276-1.24l-16.318-7.926a2.733,2.733,0,0,0-1.05-.274L76.991-58.612a2.754,2.754,0,0,0-1.607.39L51.14-43.769a2.789,2.789,0,0,0-1.248,1.6L42.666-17.924a2.8,2.8,0,0,0,.9,2.96l2.848,2.346L46.107-8.3ZM51.1-16.024l-2.53-2.083,6.385-21.418L77.517-52.976,105.939-51.2l14.98,7.275,8.586,16.75V-1.1l-14.3,17.649a2.83,2.83,0,0,0-.558,1.155l-2.8,12.627a2.637,2.637,0,0,0,0,1.231l3.806,16.588L77.045,57.092,74.932,43.066a2.8,2.8,0,0,0-2.765-2.376H54.916v-9.75a2.792,2.792,0,0,0-1.136-2.251l-3.446-2.54,2.132-2.136a2.8,2.8,0,0,0-.921-4.567L46.993,17.6v-5.58a2.806,2.806,0,0,0-1.438-2.449l-3.6-1.993,9.2-13.317a2.787,2.787,0,0,0,.488-1.391l.466-6.527A2.843,2.843,0,0,0,51.1-16.024Z" transform="translate(-35.102 58.619)" fill="#48c2c8"/>
    <path id="Path_80" data-name="Path 80" d="M99.578,24.738l-2,5.074A2.8,2.8,0,0,0,99.77,33.6l5.393.811,1.736,5.171a2.8,2.8,0,0,0,4.112,1.5l4.653-2.844,4.653,2.844a2.8,2.8,0,0,0,4.112-1.5l1.736-5.171,5.389-.811a2.8,2.8,0,0,0,2.193-3.789l-2-5.074,3.614-4.088a2.8,2.8,0,0,0-.757-4.31l-4.791-2.605.136-5.453a2.815,2.815,0,0,0-1-2.216,2.784,2.784,0,0,0-2.355-.6l-5.346,1.082-3.4-4.265a2.9,2.9,0,0,0-4.377,0l-3.394,4.265-5.347-1.082a2.794,2.794,0,0,0-3.351,2.812l.138,5.453-4.791,2.605a2.8,2.8,0,0,0-.759,4.31Zm6.122-6.909a2.8,2.8,0,0,0,1.46-2.527l-.093-3.653,3.581.725a2.79,2.79,0,0,0,2.743-1l2.277-2.857,2.277,2.857a2.788,2.788,0,0,0,2.743,1l3.581-.725-.093,3.653a2.794,2.794,0,0,0,1.46,2.527l3.209,1.747-2.419,2.74a2.793,2.793,0,0,0-.505,2.875l1.335,3.4-3.614.543a2.8,2.8,0,0,0-2.236,1.876l-1.164,3.465-3.116-1.9a2.79,2.79,0,0,0-2.922,0l-3.116,1.9-1.164-3.465a2.8,2.8,0,0,0-2.236-1.876l-3.61-.545,1.335-3.4a2.8,2.8,0,0,0-.505-2.876l-2.419-2.74Z" transform="translate(-77.582 16.329)" fill="#48c2c8"/>
    <path id="Path_81" data-name="Path 81" d="M145.013,61.554a8.159,8.159,0,1,0-8.159-8.159A8.168,8.168,0,0,0,145.013,61.554Zm0-10.723a2.564,2.564,0,1,1-2.564,2.564A2.567,2.567,0,0,1,145.013,50.831Z" transform="translate(-106.932 -14.696)" fill="#48c2c8"/>
    <path id="Path_82" data-name="Path 82" d="M227.921,46.729a2.8,2.8,0,0,0-.757,4.31l2.674,3.027-1.475,3.76a2.8,2.8,0,0,0,2.189,3.789l4,.6,1.283,3.831a2.795,2.795,0,0,0,4.112,1.5l3.45-2.107,3.448,2.107a2.8,2.8,0,0,0,4.112-1.5l1.283-3.831,3.995-.6a2.8,2.8,0,0,0,2.189-3.789l-1.479-3.76,2.678-3.027a2.793,2.793,0,0,0-.763-4.31l-3.541-1.93.106-4.038a2.791,2.791,0,0,0-3.351-2.812l-3.959.8-2.525-3.157a2.9,2.9,0,0,0-4.377,0l-2.518,3.157-3.959-.8a2.794,2.794,0,0,0-3.351,2.812l.1,4.038Zm7.726,2.161a2.8,2.8,0,0,0,1.46-2.525l-.058-2.238,2.193.444a2.8,2.8,0,0,0,2.747-1l1.395-1.749,1.4,1.749a2.794,2.794,0,0,0,2.745,1l2.2-.444-.051,2.238a2.779,2.779,0,0,0,1.453,2.525l1.975,1.07-1.482,1.676a2.789,2.789,0,0,0-.506,2.875l.817,2.083-2.216.334a2.794,2.794,0,0,0-2.236,1.878l-.71,2.122-1.908-1.167a2.791,2.791,0,0,0-2.919,0l-1.9,1.167-.714-2.122a2.809,2.809,0,0,0-2.232-1.878l-2.216-.334.817-2.083a2.8,2.8,0,0,0-.507-2.875l-1.479-1.676Z" transform="translate(-170.188 -7.183)" fill="#48c2c8"/>
    <path id="Path_83" data-name="Path 83" d="M266.944,83.994a7.1,7.1,0,1,0-7.107-7.1A7.108,7.108,0,0,0,266.944,83.994Zm0-8.6a1.507,1.507,0,1,1-1.512,1.507A1.514,1.514,0,0,1,266.944,75.389Z" transform="translate(-193.75 -32.03)" fill="#48c2c8"/>
  </g>
</svg>
