<svg id="Group_99" data-name="Group 99" xmlns="http://www.w3.org/2000/svg" width="100" height="97.366" viewBox="0 0 100 97.366">
  <path id="Path_84" data-name="Path 84" d="M64.329,32.078V14.734a9.406,9.406,0,1,0-4.68,0V32.078a15.7,15.7,0,0,0-11.4,7.986l-10.292-8a6.8,6.8,0,1,0-2.993,3.6l11.634,9.044a15.59,15.59,0,0,0,2.8,12.146L36.236,70.007a2.34,2.34,0,0,0,3.309,3.309L52.7,60.162a15.583,15.583,0,0,0,6.95,2.887V80.432a6.784,6.784,0,1,0,4.68,0V63.05a15.662,15.662,0,0,0,0-30.972ZM31.558,31.9a2.1,2.1,0,1,1,2.1-2.1A2.107,2.107,0,0,1,31.558,31.9ZM57.263,5.623a4.726,4.726,0,1,1,4.726,4.726A4.731,4.731,0,0,1,57.263,5.623ZM61.989,88.9a2.1,2.1,0,0,1-.423-4.166,2.242,2.242,0,0,0,.846,0,2.1,2.1,0,0,1-.423,4.166Zm0-30.359A10.976,10.976,0,0,1,51.45,44.485c.015-.048.03-.1.041-.145a10.982,10.982,0,1,1,10.5,14.205Z" transform="translate(-17.708 3.782)" fill="#48c2c8"/>
  <path id="Path_85" data-name="Path 85" d="M231.02,87.953a9.416,9.416,0,0,0-9.406,9.405c0,.242.012.48.03.718l-16.921,5.769a2.34,2.34,0,1,0,1.51,4.429l16.921-5.769a9.4,9.4,0,1,0,7.866-14.553Zm0,14.132a4.726,4.726,0,1,1,4.726-4.726A4.731,4.731,0,0,1,231.02,102.085Z" transform="translate(-140.425 -59.334)" fill="#48c2c8"/>
  <path id="Path_86" data-name="Path 86" d="M11.531,242.44a9.405,9.405,0,1,0,9.405,9.405A9.416,9.416,0,0,0,11.531,242.44Zm0,14.131a4.726,4.726,0,1,1,4.726-4.726A4.731,4.731,0,0,1,11.531,256.571Z" transform="translate(-2.125 -165.625)" fill="#48c2c8"/>
</svg>
