<svg id="Page-1" xmlns="http://www.w3.org/2000/svg" width="100.463" height="93.765" viewBox="0 0 100.463 93.765">
  <g id="_001---Book" data-name="001---Book" transform="translate(0 0)">
    <path id="Shape" d="M.14-73.371v-3.516a6.7,6.7,0,0,0-6.7-6.7H-18.586A5.023,5.023,0,0,0-23.3-86.933H-33.347a5.011,5.011,0,0,0-4.97,4.5,11.579,11.579,0,0,0-5.067,4.579,11.721,11.721,0,0,0-10.056-5.73H-80.23a6.7,6.7,0,0,0-6.7,6.7v3.516a8.387,8.387,0,0,0-6.7,8.2V-1.54a8.382,8.382,0,0,0,8.372,8.372H-1.534A8.382,8.382,0,0,0,6.838-1.54V-65.166A8.387,8.387,0,0,0,.14-73.371ZM-35.022-81.91a1.674,1.674,0,0,1,1.674-1.675H-23.3a1.674,1.674,0,0,1,1.674,1.675v31.678l-5.651-4.521a1.674,1.674,0,0,0-2.093,0l-5.651,4.521Zm-3.349,3.349v31.813a1.674,1.674,0,0,0,.949,1.51,1.675,1.675,0,0,0,1.772-.2l7.325-5.86L-21-45.44a1.675,1.675,0,0,0,1.772.2,1.674,1.674,0,0,0,.949-1.51V-80.236H-6.557a3.349,3.349,0,0,1,3.349,3.349v60.278A3.349,3.349,0,0,1-6.557-13.26h-26.79a11.576,11.576,0,0,0-8.278,3.431c-.033.034-.062.07-.094.1V-71.864A8.356,8.356,0,0,1-38.37-78.561ZM-3.208-10.816v4.253A3.349,3.349,0,0,1-6.557-3.214H-41.552a8.4,8.4,0,0,1,8.2-6.7h26.79a6.649,6.649,0,0,0,3.349-.9Zm-80.37-66.071a3.349,3.349,0,0,1,3.349-3.349h26.79a8.382,8.382,0,0,1,8.372,8.372V-9.744A11.688,11.688,0,0,0-53.44-13.26H-80.23a3.349,3.349,0,0,1-3.349-3.349Zm0,66.076a6.649,6.649,0,0,0,3.349.9h26.79a8.385,8.385,0,0,1,8.2,6.7H-80.23a3.349,3.349,0,0,1-3.349-3.349ZM3.489-1.54A5.023,5.023,0,0,1-1.534,3.484H-85.253A5.023,5.023,0,0,1-90.276-1.54V-65.166a5.023,5.023,0,0,1,3.349-4.715V-6.563a6.7,6.7,0,0,0,6.7,6.7H-6.557a6.7,6.7,0,0,0,6.7-6.7V-69.881a5.023,5.023,0,0,1,3.349,4.715Z" transform="translate(93.625 86.933)" fill="#48c2c8"/>
    <path id="Shape-2" data-name="Shape" d="M-15.151-15.318H8.291a1.674,1.674,0,0,0,1.674-1.674,1.674,1.674,0,0,0-1.674-1.675H-15.151a1.675,1.675,0,0,0-1.674,1.675A1.674,1.674,0,0,0-15.151-15.318Z" transform="translate(31.894 32.062)" fill="#48c2c8"/>
    <path id="Shape-3" data-name="Shape" d="M-15.151,27.349H8.291a1.674,1.674,0,0,0,0-3.349H-15.151a1.674,1.674,0,0,0-1.674,1.674A1.675,1.675,0,0,0-15.151,27.349Z" transform="translate(31.894 -2.233)" fill="#48c2c8"/>
    <path id="Shape-4" data-name="Shape" d="M-15.151,70.016H8.291a1.674,1.674,0,0,0,0-3.349H-15.151a1.674,1.674,0,0,0-1.674,1.674A1.674,1.674,0,0,0-15.151,70.016Z" transform="translate(31.894 -36.528)" fill="#48c2c8"/>
    <path id="Shape-5" data-name="Shape" d="M-15.151,112.682h6.7a1.674,1.674,0,0,0,1.674-1.674,1.675,1.675,0,0,0-1.674-1.674h-6.7a1.675,1.675,0,0,0-1.674,1.674A1.674,1.674,0,0,0-15.151,112.682Z" transform="translate(31.894 -70.822)" fill="#48c2c8"/>
    <path id="Shape-6" data-name="Shape" d="M63.163,109.333H53.116a1.674,1.674,0,0,0,0,3.349H63.163a1.674,1.674,0,0,0,0-3.349Z" transform="translate(-22.977 -70.822)" fill="#48c2c8"/>
    <path id="Shape-7" data-name="Shape" d="M-15.151,155.349H8.291a1.674,1.674,0,0,0,0-3.349H-15.151a1.674,1.674,0,0,0-1.674,1.674A1.675,1.675,0,0,0-15.151,155.349Z" transform="translate(31.894 -105.117)" fill="#48c2c8"/>
    <path id="Shape-8" data-name="Shape" d="M-15.151,198.016H8.291a1.674,1.674,0,0,0,0-3.349H-15.151a1.674,1.674,0,0,0-1.674,1.674A1.674,1.674,0,0,0-15.151,198.016Z" transform="translate(31.894 -139.412)" fill="#48c2c8"/>
    <path id="Shape-9" data-name="Shape" d="M-15.151,240.682h8.372A1.674,1.674,0,0,0-5.1,239.007a1.674,1.674,0,0,0-1.674-1.675h-8.372a1.675,1.675,0,0,0-1.674,1.675A1.674,1.674,0,0,0-15.151,240.682Z" transform="translate(31.894 -173.707)" fill="#48c2c8"/>
    <path id="Shape-10" data-name="Shape" d="M70.021,237.333H61.649a1.674,1.674,0,0,0,0,3.349h8.372a1.674,1.674,0,0,0,0-3.349Z" transform="translate(-29.836 -173.707)" fill="#48c2c8"/>
    <path id="Shape-11" data-name="Shape" d="M309.116-15.318h3.349a1.674,1.674,0,0,0,1.674-1.674,1.674,1.674,0,0,0-1.674-1.675h-3.349a1.674,1.674,0,0,0-1.674,1.675A1.674,1.674,0,0,0,309.116-15.318Z" transform="translate(-228.746 32.062)" fill="#48c2c8"/>
    <path id="Shape-12" data-name="Shape" d="M309.116,27.349h3.349a1.674,1.674,0,0,0,0-3.349h-3.349a1.674,1.674,0,0,0,0,3.349Z" transform="translate(-228.746 -2.233)" fill="#48c2c8"/>
    <path id="Shape-13" data-name="Shape" d="M309.116,70.016h3.349a1.674,1.674,0,0,0,0-3.349h-3.349a1.674,1.674,0,1,0,0,3.349Z" transform="translate(-228.746 -36.528)" fill="#48c2c8"/>
    <path id="Shape-14" data-name="Shape" d="M309.116,112.682h3.349a1.674,1.674,0,0,0,0-3.349h-3.349a1.674,1.674,0,0,0,0,3.349Z" transform="translate(-228.746 -70.822)" fill="#48c2c8"/>
    <path id="Shape-15" data-name="Shape" d="M206.716,155.349h23.441a1.674,1.674,0,0,0,0-3.349H206.716a1.674,1.674,0,0,0,0,3.349Z" transform="translate(-146.439 -105.117)" fill="#48c2c8"/>
    <path id="Shape-16" data-name="Shape" d="M206.716,198.016h23.441a1.674,1.674,0,1,0,0-3.349H206.716a1.674,1.674,0,0,0,0,3.349Z" transform="translate(-146.439 -139.412)" fill="#48c2c8"/>
    <path id="Shape-17" data-name="Shape" d="M206.716,240.682h8.372a1.674,1.674,0,0,0,0-3.349h-8.372a1.674,1.674,0,0,0,0,3.349Z" transform="translate(-146.439 -173.707)" fill="#48c2c8"/>
    <path id="Shape-18" data-name="Shape" d="M291.888,237.333h-8.372a1.674,1.674,0,0,0,0,3.349h8.372a1.674,1.674,0,0,0,0-3.349Z" transform="translate(-208.169 -173.707)" fill="#48c2c8"/>
  </g>
</svg>
