<svg xmlns="http://www.w3.org/2000/svg" width="100" height="86.654" viewBox="0 0 100 86.654">
  <path id="Path_155" data-name="Path 155" d="M98.706,53.575a22.4,22.4,0,0,0-7.363-11.531c-6.956-5.933-13.479-8.384-21.123-7.963a74.567,74.567,0,0,0-11.844,1.833,22.164,22.164,0,0,0-12.417,6.55,25.546,25.546,0,0,0-4.94,8.757,40.2,40.2,0,0,0-1.189,4.64l-.037.177a17.338,17.338,0,0,1-1.023,2.956c-.253.608-.5,1.217-.726,1.855a5.175,5.175,0,0,0-.323,2.325,5.367,5.367,0,0,0,1.858,3.11c.459.46.892.895.9,1.2a3.256,3.256,0,0,1-.179.439,20.938,20.938,0,0,1-3.333,4.968c-.588.71-1.218,1.468-1.958,2.454a5.942,5.942,0,0,0-1.655,4.071,4.343,4.343,0,0,0,1.887,2.69,9.066,9.066,0,0,0,1.334.845,4.661,4.661,0,0,1,1.268.864,2.221,2.221,0,0,1-.115,1.19c-.18.408-.363.76-.523,1.065-.48.921-1.282,2.465.01,3.666.377.353.679.635,6.918,2.01-3.013,1.226-4.633,2.461-4.815,3.676A1.969,1.969,0,0,0,40,97.138c.166.133.228.2.231.2a4.683,4.683,0,0,1,.112.5c.041.217.093.466.166.758a3.84,3.84,0,0,1-.13,1.466c-.073.373-.145.747-.183,1.082a8.338,8.338,0,0,0,.413,3.666,5.075,5.075,0,0,0,4.758,3.878,5.021,5.021,0,0,0,1.093-.123,30.118,30.118,0,0,0,6.251-2.667c1.276-.65,2.58-1.31,3.775-1.821,2.355,2.071,5.383,10,6.9,15.416a1.666,1.666,0,0,0,1.607,1.2l30.481-.083a1.666,1.666,0,0,0,1.6-2.115,10.707,10.707,0,0,0-1.258-2.6,12.429,12.429,0,0,1-.767-1.4c-.525-1.143-3.3-9.059-3.678-10.4a46.129,46.129,0,0,1-1.427-7.774,22.5,22.5,0,0,1-.112-3.116,14.939,14.939,0,0,0,8.678-20.625,22.007,22.007,0,0,0,1.48-7.721A43.114,43.114,0,0,0,98.706,53.575ZM84.993,90.692A11.666,11.666,0,1,1,96.659,79.026,11.667,11.667,0,0,1,84.993,90.692Zm0-26.665a15,15,0,0,0,0,30c.5,0,1-.027,1.5-.075a26.115,26.115,0,0,0,.149,2.741,49.558,49.558,0,0,0,1.535,8.315c.375,1.333,3.216,9.487,3.841,10.847a12.738,12.738,0,0,0,.757,1.428l-26.53.075c-.989-3.306-3.431-10.707-6.461-14.565l.683-.26c.865-.333,1.515-.578,1.855-.693,5.4-1.857,8.094-4.541,8.022-7.978a1.667,1.667,0,0,0-1.666-1.632h-.037a1.667,1.667,0,0,0-1.63,1.7c.027,1.253-.953,3.1-5.77,4.754-.353.121-1.045.383-1.963.733-.878.333-1.973.753-3.178,1.2h-.01a53.137,53.137,0,0,0-4.886,2.291,28.929,28.929,0,0,1-5.465,2.389c-1.2.266-1.733-.834-1.95-1.518a5.087,5.087,0,0,1-.28-2.24c.031-.279.088-.555.144-.834a6.564,6.564,0,0,0,.106-2.881c-.058-.252-.1-.463-.138-.646a5.485,5.485,0,0,0-.373-1.283,17.785,17.785,0,0,1,2.606-1.234,3.166,3.166,0,0,0-.463-6.05c-2.7-.59-4.242-.968-5.111-1.2.167-.315.333-.666.51-1.054a5.554,5.554,0,0,0,.355-3.106A4.886,4.886,0,0,0,38.2,80.026a6.709,6.709,0,0,1-.955-.6,5.657,5.657,0,0,1-.553-.5,6.815,6.815,0,0,1,1.038-1.657c.653-.87,1.253-1.59,1.81-2.261a23.838,23.838,0,0,0,3.8-5.732,3.947,3.947,0,0,0,.47-1.841,5.028,5.028,0,0,0-1.871-3.52c-.427-.427-.868-.871-.908-1.166a2.522,2.522,0,0,1,.166-.834c.2-.56.423-1.11.65-1.666a19.727,19.727,0,0,0,1.207-3.541l.034-.167a37.014,37.014,0,0,1,1.08-4.258,22.313,22.313,0,0,1,4.295-7.637,18.972,18.972,0,0,1,10.612-5.481A71.844,71.844,0,0,1,70.4,37.4c6.725-.371,12.523,1.833,18.774,7.166a18.857,18.857,0,0,1,6.3,9.833,39.694,39.694,0,0,1,1.185,10.428,19.106,19.106,0,0,1-.52,4.2A14.946,14.946,0,0,0,84.993,64.027ZM1.667,95.691H5a1.665,1.665,0,0,0,1.6-1.208L8.226,88.8l3.489,13.962a1.667,1.667,0,0,0,1.553,1.262h.063a1.666,1.666,0,0,0,1.58-1.14l2.257-6.766,1.443,2.167a1.667,1.667,0,0,0,3.015-.564l1.618-7.292,1.787,8.929a1.666,1.666,0,0,0,3.02.6l2.838-4.265H35a1.666,1.666,0,1,0,0-3.333H30a1.666,1.666,0,0,0-1.387.742l-1.1,1.653L24.965,82.026a1.665,1.665,0,0,0-1.615-1.333h-.018A1.666,1.666,0,0,0,21.7,82L19.219,93.192l-1.166-1.752a1.667,1.667,0,0,0-2.967.4l-1.523,4.57L9.949,81.954a1.667,1.667,0,0,0-1.588-1.261A1.637,1.637,0,0,0,6.729,81.9L3.743,92.358H1.667a1.666,1.666,0,1,0,0,3.333Zm87.025-21.04-5.5,6.879-2.017-2.016a1.666,1.666,0,0,0-2.356,2.356L82.152,85.2a1.663,1.663,0,0,0,1.175.488h.093a1.668,1.668,0,0,0,1.208-.623l6.666-8.332a1.667,1.667,0,1,0-2.6-2.083Z" transform="translate(0 -34.035)" fill="#48c2c8"/>
</svg>
