<svg xmlns="http://www.w3.org/2000/svg" width="100" height="109.091" viewBox="0 0 100 109.091">
  <path id="Path_154" data-name="Path 154" d="M121,45.454a3.409,3.409,0,1,1-6.818,0A48.554,48.554,0,0,0,99.873,10.9,3.41,3.41,0,0,1,104.7,6.077,55.338,55.338,0,0,1,121,45.454Zm-93.182,0A48.521,48.521,0,0,1,42.132,10.9a3.411,3.411,0,1,0-4.823-4.823A55.309,55.309,0,0,0,21,45.454a3.409,3.409,0,0,0,6.818,0ZM116.455,87.5a7.963,7.963,0,0,1-7.954,7.954H87.7a17.047,17.047,0,0,1-33.405,0H33.5a7.956,7.956,0,0,1-5.173-14A30.463,30.463,0,0,0,39.182,58.128V45.454a31.862,31.862,0,0,1,28.41-31.635V3.409a3.409,3.409,0,1,1,6.818,0v10.41a31.862,31.862,0,0,1,28.409,31.635V58.128a30.456,30.456,0,0,0,10.809,23.3A7.955,7.955,0,0,1,116.455,87.5ZM80.642,95.455H61.359a10.226,10.226,0,0,0,19.283,0ZM109.637,87.5a1.12,1.12,0,0,0-.4-.864A37.264,37.264,0,0,1,96,58.128V45.454a25,25,0,0,0-50,0V58.128a37.253,37.253,0,0,1-13.227,28.5,1.134,1.134,0,0,0-.41.873A1.149,1.149,0,0,0,33.5,88.637h75A1.149,1.149,0,0,0,109.637,87.5Z" transform="translate(-21)" fill="#48c2c8"/>
</svg>
