<svg xmlns="http://www.w3.org/2000/svg" width="100.463" height="94.459" viewBox="0 0 100.463 94.459">
  <path id="Path_129" data-name="Path 129" d="M.008,49.37A45.489,45.489,0,0,1,41.551,3.483a10.087,10.087,0,0,1,1.538-.164A4.587,4.587,0,0,0,47.34,1.544,4.839,4.839,0,0,1,52.488.227Q68.909,4.473,85.3,8.81a3.224,3.224,0,0,1,1.727,1.368q6.559,10.973,12.978,22.027a3.668,3.668,0,0,1,.378,2.481q-6.48,25.44-13.08,50.849a5.551,5.551,0,0,1-6.99,4.221c-2.968-.679-5.9-1.541-8.866-2.2a3.46,3.46,0,0,0-2.27.295c-13.015,7.461-26.6,8.733-40.525,3.2-13.48-5.359-22.331-15.273-26.725-29.1A39.585,39.585,0,0,1,.008,49.37Zm32.589,5.2c-.7-.047-1.194-.105-1.69-.105-2.791,0-5.582.012-8.373.012q-6.433,0-12.87-.025c-1.222,0-2.053-.611-2.065-1.823s.84-1.814,2.031-1.9c.2-.016.412-.006.62-.006q14.341,0,28.682.006c.459,0,1.1-.1,1.346.155.555.567,1.262,1.33,1.244,2-.016.536-.927,1.194-1.582,1.52a3.291,3.291,0,0,1-1.833.047c-1.312-.2-1.808.412-2.1,1.609-1.216,4.912-2.521,9.8-3.774,14.7-.509,1.988-.043,2.692,1.966,3.216q14.536,3.786,29.073,7.582,8.694,2.261,17.4,4.487c1.851.468,2.515.037,3.073-1.811.105-.347.2-.695.295-1.042q6.08-23.226,12.15-46.448c.124-.474.174-.968.27-1.523-1.4-.381-2.642-.726-3.886-1.054-4.044-1.064-8.094-2.106-12.135-3.188-1.7-.453-2.112-1.244-1.671-2.989q.419-1.651.844-3.3,1.609-6.28,3.219-12.541a3.207,3.207,0,0,0-.54-.3Q67.076,7.868,51.862,3.914A1.965,1.965,0,0,0,49.213,5.56c-.893,3.448-1.817,6.888-2.723,10.333-.372,1.417-.723,2.841-1.129,4.441,2.025,0,3.774-.022,5.523.009,1.234.022,2.155.555,2.146,1.913-.009,1.268-.85,1.827-2.047,1.827q-10.234.014-20.464,0a1.773,1.773,0,0,1-1.979-1.569c-.2-1.24.679-2.149,2.2-2.168,3.1-.04,6.2-.071,9.3.019,1.185.034,1.588-.409,1.833-1.495.682-3.02,1.482-6.016,2.233-9.021.217-.875.431-1.752.654-2.67C31.981,6.792,13.4,14.92,6.269,34.444-.7,53.528,7.125,75.1,24.442,84.949a42.97,42.97,0,0,0,19.906,5.7c7.731.292,17.819-2.574,20.046-4.915-.416-.136-.8-.285-1.194-.388-9.79-2.552-19.574-5.132-29.377-7.638-4.639-1.185-6.255-3.7-5.083-8.317C29.974,64.537,31.261,59.7,32.6,54.567ZM94.462,30.726l.233-.307q-4.284-7.168-8.565-14.336c-.13.031-.26.059-.388.09-1.033,3.793-2.062,7.582-3.129,11.505C86.715,28.735,90.588,29.73,94.462,30.726Zm-80.012-.85c-.465,0-1.061-.164-1.368.062-.636.468-1.423,1.07-1.585,1.752-.248,1.042.558,1.7,1.616,1.848a9.914,9.914,0,0,0,1.392.028H59.76c.412,0,.964.149,1.213-.059.614-.515,1.451-1.16,1.513-1.817.05-.54-.809-1.278-1.42-1.718-.347-.251-1-.1-1.516-.1q-11.238,0-22.474,0Q25.763,29.878,14.45,29.876ZM42.807,43.115c1.69-.006,2.695-.735,2.682-1.91-.009-1.144-.927-1.817-2.571-1.82q-9.764-.014-19.531,0c-1.6,0-2.552.726-2.531,1.861s1,1.861,2.571,1.867c3.256.016,6.509,0,9.765,0C36.4,43.118,39.6,43.124,42.807,43.115Z" transform="translate(-0.003 -0.005)" fill="#48c2c8"/>
</svg>
