<svg id="Layer_1" data-name="Layer 1" xmlns="http://www.w3.org/2000/svg" xmlns:xlink="http://www.w3.org/1999/xlink" width="249.5741" height="620" viewBox="0 0 249.5741 620"><defs><style>.cls-1{fill:none;}.cls-2{clip-path:url(#clip-path);}.cls-3{fill:#fff;}</style><clipPath id="clip-path"><rect class="cls-1" x="-2467.1499" width="2716.724" height="620"/></clipPath></defs><title>1stParagraph</title><g class="cls-2"><g id="Mask_Group_31" data-name="Mask Group 31"><g id="Group_86" data-name="Group 86"><g id="Group_82" data-name="Group 82"><g id="Group_80" data-name="Group 80"><path id="Path_70-3" data-name="Path 70-3" class="cls-3" d="M286.5771,543.5691a108.71,108.71,0,0,0,3.644-22.0541c-.266,0-.538,0-.81-.0059-14.426-.049-28.127-3.782-41.57-8.6a133.9244,133.9244,0,0,1-51.3639-33.5911c-11.587-11.967-20.337-25.992-27.092-41.386a136.2076,136.2076,0,0,1-10.174-35.6389,91.0646,91.0646,0,0,1-.862-20.41c.629-7.469,9.6909-13.49,15.327-10.859a17.7367,17.7367,0,0,1,10.507,13.5c1.351,7.867,1.724,15.961,3.731,23.6339a158.48,158.48,0,0,0,8.717,23.733,78.0875,78.0875,0,0,0,9.621,16.928c5.751,7.307,11.95,14.484,19.028,20.416a120.2056,120.2056,0,0,0,22.98,14.7,83.1034,83.1034,0,0,0,20.153,6.587,206.0131,206.0131,0,0,0,22.085,3.653c-.16-7.316-.342-14.622-.16-21.846q.1671-6.6371.5-13.278a80.0224,80.0224,0,0,1-14.0629-4.324c-26.3511-10.755-43.381-29.9-49.5-58.239-1.584-7.343-1.2311-15.13-2.975-22.413-2.906-12.142-8.463-23.071-18.934-30.424a133.5372,133.5372,0,0,0-16.409-9.386c-2.086-1.063-4.7-1.256-7.1-1.485-15.5-1.479-30.1-.11-43.374,9.876-9.186,6.908-14.9161,15.924-18.375,26.21-2.162,6.44-1.805,13.878-1.875,20.873a103.5382,103.5382,0,0,0,1.542,17.886c1.065,6.385,2.827,12.659,4.439,18.952a167.96,167.96,0,0,0,19.07,45.361c12.14,20.055,27.836,36.937,47.583,49.471a342.0056,342.0056,0,0,0,32.925,18.245c7.357,3.6,15.529,5.442,23.11,8.617a26.2455,26.2455,0,0,1,9.567,6.514c6.362,7.35,4.13,12.9-4.8,19.124-.88.6-1.868,1.05-2.806,1.568h-5.237c-8.412-2.98-16.9-5.773-25.2151-8.979a202.2747,202.2747,0,0,1-53.3129-30.42,192.75,192.75,0,0,1-41.149-44.569,170.793,170.793,0,0,1-13.7721-25.291,338.9827,338.9827,0,0,1-13.186-34.778,140.1345,140.1345,0,0,1-5.872-53.578c1.582-19.654,9.431-36.53,23.99-50.188,13.365-12.54,28.97-19.507,46.888-21.7269,27.491-3.4,50.653,5.7139,69.487,25.6829,11.774,12.5,18.266,27.864,20.023,45.245a151.82,151.82,0,0,0,3.417,19.534c2.579,10.932,8.8,19.427,17.794,26.026a56.9516,56.9516,0,0,0,20.171,9.5c1.27-12.221,3.051-24.382,5.455-36.429q.3771-1.9.774-3.846a16.51,16.51,0,0,1-4.729-7.215,44.094,44.094,0,0,1-1.8-10.2281c-.883-15.2379-5.307-29.34-12.225-42.835-11.2089-21.843-28.861-36.815-49.4-49-9.857-5.84-20.416-10.256-31.392-12.206-12.055-2.144-24.359-4.912-36.94-1.7-7.729,1.975-15.941,2-23.648,4.018a112.5447,112.5447,0,0,0-22.787,8.495,141.431,141.431,0,0,0-24.5,15.513c-6.51,5.295-11.98,12.078-17.18,18.787a113.572,113.572,0,0,0-19.871,39.99c-2.64,9.7-2.758,20.116-4,30.21a249.7194,249.7194,0,0,0,3.054,31.624c6.712,46.2,27.0491,92.64,59.5931,126.141a171.8585,171.8585,0,0,0,46.1259,33.627,288.9448,288.9448,0,0,0,54.3511,21.118C248.5112,600.766,277.2331,576.635,286.5771,543.5691Z"/><path id="Path_71-3" data-name="Path 71-3" class="cls-3" d="M213.7731,25.588a289.12,289.12,0,0,0-61.054,24.639c8.705-1.152,17.477-2.355,26.164-2.067,12.614.428,25.214,2.228,37.714,4.076,11.293,1.666,22.711,3.3,33.629,6.516s21.773,6.786,32.534,10.592C270.7691,41.9191,244.6471,23.132,213.7731,25.588Z"/><path id="Path_72-3" data-name="Path 72-3" class="cls-3" d="M121.6542,118.726c11.8469-2.22,23.812-3.953,35.791-5.169,7.995-.812,16.131-.515,24.189-.392,6.35.095,12.723.4,19.022,1.112a233.3509,233.3509,0,0,1,23.373,3.564c11.8319,2.572,23.721,5.172,35.25,8.844a295.5731,295.5731,0,0,1,31.05,11.367c.206-12.442.7861-24.991-.2-37.341-2.065-.906-4.1359-1.8-6.223-2.655-8.158-3.363-16.6-6.069-25.036-8.66-9.132-2.8-18.344-5.368-27.627-7.582a167.3868,167.3868,0,0,0-18.254-2.97c-8.149-1.01-16.328-2.251-24.513-2.407-11.076-.214-22.1791.392-33.264.867-5.328.227-10.661.763-15.94,1.491-12.056,1.672-24.28,2.723-36.072,5.561-.109.03-.224.061-.342.089a296.9693,296.9693,0,0,0-49.068,53.29,238.2664,238.2664,0,0,1,27.782-10.038C94.6771,123.815,108.2051,121.248,121.6542,118.726Z"/><path id="Path_73-3" data-name="Path 73-3" class="cls-3" d="M44.876,216.073a206.6238,206.6238,0,0,1,97.151-37.323c7.009-.772,14.042-1.259,21.075-1.782,5.195-.38,10.414-1.044,15.584-.815,15.079.661,30.025,2.131,44.844,5.641a204.9636,204.9636,0,0,1,64.083,27.239q4.2229,2.71,8.312,5.57a448.7664,448.7664,0,0,1-4.9069-46.672c-2.383-1.1789-4.784-2.321-7.212-3.4079-10.323-4.6181-21.1291-8.189-31.909-11.658-9.207-2.961-18.6-5.39-28.026-7.521a130.4958,130.4958,0,0,0-19.572-2.817c-11.26-.781-22.5751-1.485-33.8531-1.366-15.409.168-30.8809.095-46.047,3.812-11.653,2.86-23.6779,4.456-34.9539,8.363a296.2206,296.2206,0,0,0-39.779,17.244c-7.859,4.094-15.569,8.556-23.055,13.37a296.81,296.81,0,0,0-22.817,69.244A224.4392,224.4392,0,0,1,44.876,216.073Z"/><path id="Path_74-3" data-name="Path 74-3" class="cls-3" d="M44.0421,312.191a138.3593,138.3593,0,0,1,35.921-40.189c15.236-11.484,32-19.249,49.778-25.184,18.753-6.262,38.234-7.763,57.667-5.98,17.643,1.62,34.4,7.184,50.528,15.2a164.46,164.46,0,0,1,43.01,30.29,126.46,126.46,0,0,1,24.843,35.63,140.5223,140.5223,0,0,1,8.424,22.63c6.957-13.8141,13.107-25.7,26.665-32.19-.211-.511-.432-1.0171-.638-1.522-17.5-13.446-25.719-32.534-34.775-53.96-2.573-2.63-5.237-5.163-8.034-7.53a167.3226,167.3226,0,0,0-45.89-27.989c-10.949-4.394-21.958-8.73-33.172-12.332a92.0069,92.0069,0,0,0-20.222-3.8c-12.083-1.029-24.223-1.366-36.336-1.88-11.771-.5-23.1,2.235-34.475,4.811-16.6,3.754-32.124,10.289-47.188,18.147-19,9.906-36.184,22.321-50.834,38.04-11.354,12.185-21.3,25.573-27.682,41.215q-1.7869,4.386-3.544,8.8a298.0587,298.0587,0,0,0,37.763,143.219c-3.117-12.947-6.94-25.772-9.14-38.875-1.929-11.465-3.22-23.3-2.688-34.879C25.1831,358.539,30.9071,334.188,44.0421,312.191Z"/></g><g id="Group_81" data-name="Group 81"><path id="Path_75" data-name="Path 75" class="cls-3" d="M310.2111,553.979c-.139.512-.263,1.02-.414,1.528-9.827,34.772-40.033,60.152-76.574,57.24.112.027.224.055.335.089a305.6472,305.6472,0,0,0,217.5591-21.5l-88.893-90.018Z"/><path id="Path_77-3" data-name="Path 77-3" class="cls-3" d="M590.6541,321.542l30.962-31.367a314.1252,314.1252,0,0,0-7.81-51.67L561.088,291.893a31.47,31.47,0,0,1-7.133,32.662,30.572,30.572,0,0,1-43.2335.3945q-.199-.1954-.3944-.3945a31.5179,31.5179,0,0,1,0-44.195,30.4451,30.4451,0,0,1,31.2249-7.521l62.3271-63.12-64.787-65.617a13.856,13.856,0,0,1-.009-19.421l12.131-12.286a311.801,311.801,0,0,0-48.07-47.073l-37.452,37.932,40,40.514a13.849,13.849,0,0,1,0,19.418l-88.548,89.676a31.5221,31.5221,0,0,1-6.8209,33.694,30.5831,30.5831,0,0,1-43.2492.3879q-.1956-.1921-.3879-.3879a31.537,31.537,0,0,1,0-44.192,30.45,30.45,0,0,1,30.2151-7.83l80.034-81.058-40-40.511a13.8749,13.8749,0,0,1,0-19.421l43.762-44.32q-12.6-8.2-26.007-15.17l-50.154,50.788a13.431,13.431,0,0,1-18.9935.1765q-.0891-.0875-.1765-.1765L305.6022,4.078,301.7352.161a304.0007,304.0007,0,0,0-68.123,10.547l-.378.11c36.535-2.909,66.732,22.4679,76.559,57.237,3.444,12.172,4.264,24.712,4.3091,37.332l-.027,6.4429s-1.379,20.937,1.131,58.5321a.6517.6517,0,0,0-.1241-.034c.248,3.3.535,6.6.8411,9.8939.015.2.03.4.0419.594h.0169a422.7757,422.7757,0,0,0,6.189,42.9421c6.259,31.422,17.688,73.773,49.679,88.028-28.2379,12.577-40.448,47.042-47.236,76.5689h0s-12.228,50.188-10.943,97.9l.021-.024c-.033,8.289.26,16.652.369,25.012l38.5851-39.05a13.4329,13.4329,0,0,1,18.9963-.1736q.0876.086.1736.1736L475.77,577.487a311.9232,311.9232,0,0,0,115-127.945l-21.259-21.54-59.835,60.6a13.45,13.45,0,0,1-19.02.1585q-.08-.0784-.1585-.1585L420.78,417.995a30.5339,30.5339,0,0,1-32.765-7.068,31.541,31.541,0,0,1,0-44.195,30.589,30.589,0,0,1,43.2577-.38q.1917.1886.38.38a31.4122,31.4122,0,0,1,7.58,31.113l60.8489,61.628,59.832-60.593a13.43,13.43,0,0,1,18.9921-.1749q.0882.0867.1749.1749l23.318,23.61a312.0451,312.0451,0,0,0,14.964-54.477l-26.705-27.052A13.855,13.855,0,0,1,590.6541,321.542Z"/></g></g></g></g></g></svg>