<svg id="Layer_1" data-name="Layer 1" xmlns="http://www.w3.org/2000/svg" xmlns:xlink="http://www.w3.org/1999/xlink" width="2217.2859" height="620" viewBox="0 0 2217.2859 620"><defs><style>.cls-1{fill:none;}.cls-2{clip-path:url(#clip-path);}.cls-3{fill:#fff;}.cls-4{fill:#48c2c8;}</style><clipPath id="clip-path"><rect class="cls-1" x="140.14" width="1920" height="620"/></clipPath></defs><title>1stParagraph</title><g class="cls-2"><g id="Mask_Group_31" data-name="Mask Group 31"><g id="Group_86" data-name="Group 86"><g id="Group_82" data-name="Group 82"><g id="Group_80" data-name="Group 80"><path id="Path_74-3" data-name="Path 74-3" class="cls-3" d="M2261.328,312.191a138.361,138.361,0,0,1,35.9211-40.189c15.236-11.484,32-19.249,49.778-25.184,18.753-6.262,38.234-7.763,57.667-5.98,17.643,1.62,34.4,7.184,50.528,15.2a164.4578,164.4578,0,0,1,43.01,30.29,126.46,126.46,0,0,1,24.8431,35.63,140.5318,140.5318,0,0,1,8.424,22.63c6.9569-13.8141,13.107-25.7,26.6649-32.19-.211-.511-.432-1.0171-.638-1.522-17.5-13.446-25.7189-32.534-34.775-53.96-2.573-2.63-5.237-5.163-8.034-7.53a167.32,167.32,0,0,0-45.89-27.989c-10.949-4.394-21.958-8.73-33.172-12.332a92.0069,92.0069,0,0,0-20.222-3.8c-12.083-1.029-24.223-1.366-36.336-1.88-11.771-.5-23.1,2.235-34.4749,4.811-16.6,3.754-32.1241,10.289-47.188,18.147-19,9.906-36.1841,22.321-50.834,38.04-11.354,12.185-21.3,25.573-27.682,41.215q-1.7871,4.386-3.544,8.8a298.0587,298.0587,0,0,0,37.763,143.219c-3.117-12.947-6.94-25.772-9.14-38.875-1.9291-11.465-3.22-23.3-2.688-34.879C2242.469,358.539,2248.193,334.188,2261.328,312.191Z"/></g></g></g></g></g><g id="Group_87" data-name="Group 87"><path id="FontAwsome_quote-right_" data-name="FontAwsome quote-right " class="cls-4" d="M1751.109,75.6875h-18.75a7.0329,7.0329,0,0,0-7.031,7.031v18.75a7.0329,7.0329,0,0,0,7.031,7.031h11.719v9.375a9.3841,9.3841,0,0,1-9.375,9.375h-1.172a3.5069,3.5069,0,0,0-3.516,3.498v7.05a3.5069,3.5069,0,0,0,3.4979,3.516h1.19a23.431,23.431,0,0,0,23.437-23.425v-35.17A7.033,7.033,0,0,0,1751.109,75.6875Zm-42.188,0h-18.75a7.0329,7.0329,0,0,0-7.031,7.031v18.75a7.0329,7.0329,0,0,0,7.031,7.031h11.719v9.375a9.3841,9.3841,0,0,1-9.375,9.375h-1.175a3.5069,3.5069,0,0,0-3.516,3.498v7.05a3.5069,3.5069,0,0,0,3.4989,3.515h1.1921a23.431,23.431,0,0,0,23.438-23.424v-35.17A7.0331,7.0331,0,0,0,1708.921,75.6875Z"/><path id="FontAwsome_quote-left_" data-name="FontAwsome quote-left " class="cls-4" d="M510.109,511.5005H498.39v-9.375a9.3841,9.3841,0,0,1,9.375-9.375h1.175a3.5069,3.5069,0,0,0,3.516-3.498v-7.049a3.5069,3.5069,0,0,0-3.4979-3.516H507.765a23.431,23.431,0,0,0-23.438,23.424v35.17a7.033,7.033,0,0,0,7.031,7.031h18.75a7.033,7.033,0,0,0,7.032-7.031v-18.75A7.0329,7.0329,0,0,0,510.109,511.5005Zm-42.187,0h-11.72v-9.375a9.3841,9.3841,0,0,1,9.375-9.375h1.172a3.5069,3.5069,0,0,0,3.516-3.498v-7.049a3.5069,3.5069,0,0,0-3.4979-3.516h-1.19a23.431,23.431,0,0,0-23.437,23.425v35.169a7.033,7.033,0,0,0,7.031,7.031h18.75a7.0329,7.0329,0,0,0,7.031-7.031v-18.75a7.0329,7.0329,0,0,0-7.031-7.031Z"/></g></svg>