<?xml version="1.0" encoding="utf-8"?>
<!-- Generator: Adobe Illustrator 24.0.0, SVG Export Plug-In . SVG Version: 6.00 Build 0)  -->
<svg version="1.1" id="Layer_1" xmlns="http://www.w3.org/2000/svg" xmlns:xlink="http://www.w3.org/1999/xlink" x="0px" y="0px"
	 viewBox="0 0 1200 1200" style="enable-background:new 0 0 1200 1200;" xml:space="preserve">
<style type="text/css">
	.st0{opacity:0.43;fill:url(#SVGID_1_);}
	.st1{fill:#14120E;}
	.st2{font-family:'Aleo-Regular';}
	.st3{font-size:218.5814px;}
	.st4{font-family:'Aleo-Light';}
	.st5{font-size:104.8184px;}
	.st6{fill:#FFFFFF;}
	.st7{fill:url(#SVGID_2_);}
	.st8{fill:url(#SVGID_3_);}
	.st9{fill:url(#SVGID_4_);}
	.st10{fill:url(#SVGID_5_);}
	.st11{fill:url(#SVGID_6_);}
	.st12{fill:url(#SVGID_7_);}
	.st13{fill:url(#SVGID_8_);}
	.st14{fill:url(#SVGID_9_);}
	.st15{fill:url(#SVGID_10_);}
	.st16{opacity:0.35;fill:url(#SVGID_11_);}
</style>
<g>
	
		<radialGradient id="SVGID_1_" cx="599.9987" cy="747.3822" r="329.1307" gradientTransform="matrix(1 0 0 0.1 0 672.644)" gradientUnits="userSpaceOnUse">
		<stop  offset="0" style="stop-color:#565250"/>
		<stop  offset="0.3681" style="stop-color:#898381"/>
		<stop  offset="1" style="stop-color:#FFFFFF"/>
	</radialGradient>
	<path class="st0" d="M1054.44,747.38c0,55.61-203.46,100.69-454.44,100.69c-250.97,0-454.43-45.08-454.43-100.69
		c0-55.61,203.46-100.7,454.43-100.7C850.98,646.69,1054.44,691.77,1054.44,747.38z"/>
	<text transform="matrix(1 0 0 1 0 1006.3271)" class="st1 st2 st3">Info to Intell</text>
	<text transform="matrix(1 0 0 1 238.6436 1135.6104)" class="st1 st4 st5">solutions</text>
	<g>
		<path class="st6" d="M916.67,375.5c0,174.89-141.78,316.66-316.68,316.66c-174.89,0-316.67-141.78-316.67-316.66
			c0-174.89,141.78-316.66,316.67-316.66C774.9,58.83,916.67,200.6,916.67,375.5z"/>
		<linearGradient id="SVGID_2_" gradientUnits="userSpaceOnUse" x1="930.6075" y1="375.4952" x2="269.3886" y2="375.4952">
			<stop  offset="0" style="stop-color:#52BEC8"/>
			<stop  offset="1" style="stop-color:#0E4A47"/>
		</linearGradient>
		<path class="st7" d="M599.99,58.83c174.9,0,316.68,141.77,316.68,316.66c0,174.89-141.78,316.66-316.68,316.66
			c-174.89,0-316.67-141.78-316.67-316.66C283.32,200.6,425.1,58.83,599.99,58.83 M599.99,44.89c-44.63,0-87.93,8.74-128.7,25.98
			c-39.37,16.65-74.73,40.49-105.08,70.85c-30.36,30.36-54.2,65.71-70.85,105.08c-17.24,40.77-25.98,84.06-25.98,128.69
			c0,44.63,8.74,87.92,25.98,128.69c16.65,39.37,40.49,74.72,70.85,105.08c30.35,30.36,65.71,54.19,105.08,70.84
			c40.76,17.24,84.06,25.98,128.7,25.98c44.64,0,87.94-8.74,128.71-25.98c39.37-16.66,74.73-40.49,105.08-70.84
			c30.35-30.36,54.19-65.72,70.85-105.08c17.24-40.77,25.98-84.07,25.98-128.69c0-44.63-8.74-87.92-25.98-128.69
			c-16.65-39.37-40.49-74.73-70.85-105.08c-30.36-30.36-65.71-54.19-105.08-70.85C687.93,53.63,644.63,44.89,599.99,44.89
			L599.99,44.89z"/>
		<g>
			<g>
				<linearGradient id="SVGID_3_" gradientUnits="userSpaceOnUse" x1="962.0056" y1="488.2802" x2="180.6668" y2="488.2802">
					<stop  offset="0" style="stop-color:#52BEC8"/>
					<stop  offset="0.0957" style="stop-color:#51B3BB"/>
					<stop  offset="0.269" style="stop-color:#4D979B"/>
					<stop  offset="0.5002" style="stop-color:#426D6D"/>
					<stop  offset="0.7771" style="stop-color:#2D3A37"/>
					<stop  offset="1" style="stop-color:#13110C"/>
				</linearGradient>
				<path class="st8" d="M577.97,591.96c1.94-6.77,2.95-13.66,3.45-20.61c-0.25,0-0.51,0-0.77,0c-13.65-0.05-26.62-3.54-39.34-8.03
					c-18.68-6.6-34.83-17.34-48.62-31.39c-10.96-11.18-19.25-24.29-25.64-38.67c-4.76-10.72-7.97-21.8-9.63-33.3
					c-0.91-6.28-1.36-12.77-0.81-19.07c0.59-6.98,9.17-12.61,14.5-10.15c5.33,2.46,8.92,6.71,9.94,12.61
					c1.28,7.35,1.63,14.91,3.53,22.09c2.01,7.59,5.03,14.98,8.25,22.18c2.47,5.54,5.34,11.11,9.1,15.82
					c5.45,6.83,11.31,13.53,18.01,19.08c6.56,5.43,14.1,9.91,21.75,13.73c5.92,2.96,12.55,4.79,19.07,6.15
					c6.9,1.45,13.89,2.71,20.9,3.42c-0.15-6.84-0.32-13.66-0.15-20.42c0.11-4.13,0.27-8.27,0.47-12.41
					c-4.52-0.92-8.98-2.3-13.31-4.04c-24.94-10.05-41.06-27.94-46.85-54.42c-1.5-6.86-1.16-14.14-2.82-20.94
					c-2.75-11.35-8.01-21.56-17.92-28.43c-4.87-3.38-10.22-6.1-15.53-8.77c-1.98-0.99-4.45-1.17-6.72-1.39
					c-14.67-1.38-28.49-0.1-41.05,9.23c-8.69,6.46-14.11,14.88-17.39,24.49c-2.05,6.02-1.71,12.97-1.77,19.51
					c-0.05,5.57,0.52,11.21,1.46,16.71c1.01,5.97,2.68,11.83,4.2,17.71c3.89,15.02,9.98,29.21,18.05,42.39
					c11.49,18.74,26.34,34.52,45.03,46.23c10.02,6.28,20.51,11.9,31.16,17.05c6.96,3.36,14.7,5.08,21.87,8.05
					c3.32,1.37,6.72,3.43,9.05,6.09c6.02,6.87,3.91,12.06-4.55,17.87c-0.83,0.56-1.77,0.98-2.65,1.46c-1.65,0-3.31,0-4.96,0
					c-7.96-2.78-15.99-5.39-23.86-8.39c-18.23-6.94-35.09-16.39-50.46-28.43c-15.13-11.87-28.25-25.7-38.94-41.65
					c-4.99-7.45-9.38-15.43-13.03-23.62c-4.73-10.59-8.95-21.46-12.48-32.5c-5.19-16.23-6.94-33.12-5.56-50.06
					c1.5-18.37,8.92-34.14,22.7-46.9c12.65-11.72,27.42-18.23,44.37-20.3c26.02-3.18,47.94,5.34,65.76,24
					c11.14,11.68,17.29,26.04,18.95,42.28c0.62,6.14,1.8,12.25,3.23,18.26c2.44,10.22,8.33,18.15,16.84,24.32
					c5.93,4.3,12.35,7.23,19.09,8.87c1.2-11.42,2.89-22.78,5.16-34.04c0.24-1.18,0.48-2.38,0.73-3.59c-2-1.79-3.68-4.16-4.48-6.74
					c-0.94-3.08-1.51-6.34-1.7-9.56c-0.83-14.24-5.02-27.42-11.57-40.03c-10.61-20.41-27.31-34.4-46.75-45.79
					c-9.33-5.46-19.32-9.58-29.71-11.41c-11.41-2-23.05-4.59-34.96-1.59c-7.31,1.85-15.09,1.87-22.38,3.76
					c-7.39,1.92-14.77,4.49-21.57,7.94c-8.11,4.12-16.12,8.82-23.19,14.5c-6.16,4.95-11.34,11.29-16.26,17.55
					c-8.75,11.14-15.08,23.82-18.8,37.37c-2.5,9.07-2.61,18.8-3.79,28.23c0.39,10,1.25,19.85,2.89,29.55
					c6.35,43.18,25.6,86.57,56.4,117.88c12.88,13.1,27.3,23.18,43.65,31.42c16.43,8.27,33.69,14.9,51.44,19.73
					C541.94,645.41,569.12,622.86,577.97,591.96z"/>
				<linearGradient id="SVGID_4_" gradientUnits="userSpaceOnUse" x1="962.0226" y1="128.2765" x2="180.6566" y2="128.2765">
					<stop  offset="0" style="stop-color:#52BEC8"/>
					<stop  offset="0.0957" style="stop-color:#51B3BB"/>
					<stop  offset="0.269" style="stop-color:#4D979B"/>
					<stop  offset="0.5002" style="stop-color:#426D6D"/>
					<stop  offset="0.7771" style="stop-color:#2D3A37"/>
					<stop  offset="1" style="stop-color:#13110C"/>
				</linearGradient>
				<path class="st9" d="M509.07,107.93c-20.28,5.53-39.63,13.29-57.78,23.03c8.24-1.08,16.54-2.2,24.76-1.93
					c11.93,0.4,23.86,2.09,35.7,3.81c10.69,1.56,21.49,3.09,31.82,6.09c10.34,3.01,20.61,6.34,30.79,9.9
					C563.01,123.19,538.29,105.64,509.07,107.93z"/>
				<linearGradient id="SVGID_5_" gradientUnits="userSpaceOnUse" x1="962.0109" y1="184.2114" x2="180.6628" y2="184.2114">
					<stop  offset="0" style="stop-color:#52BEC8"/>
					<stop  offset="0.0957" style="stop-color:#51B3BB"/>
					<stop  offset="0.269" style="stop-color:#4D979B"/>
					<stop  offset="0.5002" style="stop-color:#426D6D"/>
					<stop  offset="0.7771" style="stop-color:#2D3A37"/>
					<stop  offset="1" style="stop-color:#13110C"/>
				</linearGradient>
				<path class="st10" d="M421.88,194.96c11.21-2.07,22.53-3.69,33.87-4.83c7.57-0.76,15.27-0.48,22.89-0.37
					c6.01,0.09,12.04,0.37,18,1.04c7.41,0.83,14.84,1.77,22.12,3.33c11.2,2.4,22.45,4.83,33.36,8.27
					c9.92,3.12,19.88,6.42,29.39,10.62c0.19-11.63,0.74-23.35-0.19-34.89c-1.95-0.85-3.91-1.68-5.89-2.48
					c-7.72-3.14-15.71-5.67-23.69-8.09c-8.64-2.62-17.36-5.02-26.14-7.09c-5.67-1.33-11.49-2.07-17.28-2.77
					c-7.71-0.94-15.45-2.11-23.2-2.25c-10.48-0.2-20.99,0.37-31.48,0.81c-5.04,0.21-10.09,0.71-15.09,1.39
					c-11.41,1.56-22.98,2.54-34.14,5.2c-0.1,0.03-0.21,0.06-0.32,0.08c-17.43,14.62-33.04,31.36-46.44,49.8
					c8.55-3.69,17.35-6.77,26.29-9.38C396.35,199.72,409.15,197.32,421.88,194.96z"/>
				<linearGradient id="SVGID_6_" gradientUnits="userSpaceOnUse" x1="962.0141" y1="268.265" x2="180.6647" y2="268.265">
					<stop  offset="0" style="stop-color:#52BEC8"/>
					<stop  offset="0.0957" style="stop-color:#51B3BB"/>
					<stop  offset="0.269" style="stop-color:#4D979B"/>
					<stop  offset="0.5002" style="stop-color:#426D6D"/>
					<stop  offset="0.7771" style="stop-color:#2D3A37"/>
					<stop  offset="1" style="stop-color:#13110C"/>
				</linearGradient>
				<path class="st11" d="M349.22,285.93c15.69-11.06,32.61-19.72,50.81-25.79c13.37-4.46,27.1-7.57,41.14-9.09
					c6.63-0.72,13.29-1.17,19.94-1.66c4.92-0.35,9.85-0.98,14.75-0.76c14.27,0.62,28.41,1.99,42.44,5.27
					c21.73,5.08,41.95,13.58,60.65,25.45c2.66,1.69,5.28,3.42,7.87,5.21c-2.36-14.43-3.82-29.01-4.64-43.61
					c-2.25-1.1-4.53-2.17-6.83-3.19c-9.77-4.31-20-7.65-30.2-10.89c-8.71-2.77-17.6-5.04-26.52-7.03
					c-6.08-1.35-12.31-2.21-18.52-2.63c-10.66-0.73-21.36-1.39-32.04-1.28c-14.58,0.16-29.23,0.09-43.58,3.56
					c-11.03,2.67-22.41,4.17-33.08,7.81c-12.89,4.41-25.53,9.88-37.65,16.11c-7.43,3.83-14.73,8-21.82,12.49
					c-9.73,20.32-17.04,42.01-21.59,64.71C321.75,307.36,334.9,296.02,349.22,285.93z"/>
				<linearGradient id="SVGID_7_" gradientUnits="userSpaceOnUse" x1="962.0478" y1="392.8333" x2="180.6644" y2="392.8333">
					<stop  offset="0" style="stop-color:#52BEC8"/>
					<stop  offset="0.0957" style="stop-color:#51B3BB"/>
					<stop  offset="0.269" style="stop-color:#4D979B"/>
					<stop  offset="0.5002" style="stop-color:#426D6D"/>
					<stop  offset="0.7771" style="stop-color:#2D3A37"/>
					<stop  offset="1" style="stop-color:#13110C"/>
				</linearGradient>
				<path class="st12" d="M348.43,375.75c8.89-14.68,20.05-27.19,34-37.55c14.42-10.73,30.28-17.99,47.11-23.53
					c17.74-5.85,36.18-7.25,54.57-5.59c16.7,1.51,32.56,6.71,47.82,14.2c15.11,7.42,28.82,16.68,40.7,28.31
					c9.74,9.54,17.45,20.78,23.51,33.29c3.33,6.89,5.93,13.94,7.97,21.15c6.58-12.91,12.4-24.01,25.23-30.08
					c-0.2-0.48-0.41-0.95-0.6-1.42c-16.56-12.56-24.34-30.4-32.91-50.42c-2.44-2.46-4.96-4.82-7.6-7.04
					c-13.02-10.9-27.53-19.85-43.43-26.16c-10.36-4.11-20.78-8.16-31.39-11.52c-6.14-1.95-12.7-3.01-19.14-3.55
					c-11.44-0.96-22.93-1.27-34.39-1.76c-11.14-0.47-21.86,2.09-32.63,4.49c-15.71,3.51-30.4,9.62-44.66,16.96
					c-17.98,9.26-34.24,20.86-48.11,35.55c-10.74,11.39-20.16,23.9-26.2,38.51c-1.13,2.73-2.25,5.47-3.35,8.22
					c0.42,48.62,13.35,94.25,35.74,133.83c-2.95-12.1-6.57-24.08-8.65-36.33c-1.83-10.71-3.05-21.78-2.54-32.59
					C330.59,419.06,336,396.31,348.43,375.75z"/>
			</g>
			<g>
				<linearGradient id="SVGID_8_" gradientUnits="userSpaceOnUse" x1="962.0559" y1="609.6536" x2="180.6258" y2="609.6536">
					<stop  offset="0" style="stop-color:#52BEC8"/>
					<stop  offset="0.0957" style="stop-color:#51B3BB"/>
					<stop  offset="0.269" style="stop-color:#4D979B"/>
					<stop  offset="0.5002" style="stop-color:#426D6D"/>
					<stop  offset="0.7771" style="stop-color:#2D3A37"/>
					<stop  offset="1" style="stop-color:#13110C"/>
				</linearGradient>
				<path class="st13" d="M600.33,601.69c-0.13,0.48-0.25,0.95-0.39,1.43c-9.3,32.49-37.89,56.21-72.47,53.49
					c0.11,0.03,0.21,0.05,0.32,0.08c24.37,6.61,50.01,10.14,76.48,10.14c46.49,0,90.42-10.88,129.41-30.23l-84.13-84.12
					L600.33,601.69z"/>
				<linearGradient id="SVGID_9_" gradientUnits="userSpaceOnUse" x1="962.0417" y1="110.5211" x2="180.6682" y2="110.5211">
					<stop  offset="0" style="stop-color:#52BEC8"/>
					<stop  offset="0.0957" style="stop-color:#51B3BB"/>
					<stop  offset="0.269" style="stop-color:#4D979B"/>
					<stop  offset="0.5002" style="stop-color:#426D6D"/>
					<stop  offset="0.7771" style="stop-color:#2D3A37"/>
					<stop  offset="1" style="stop-color:#13110C"/>
				</linearGradient>
				<path class="st14" d="M629.43,84.97l51.11,51.1l31.58-31.58C686.18,94.17,658.41,87.45,629.43,84.97z"/>
				<linearGradient id="SVGID_10_" gradientUnits="userSpaceOnUse" x1="962.0254" y1="353.9055" x2="180.6621" y2="353.9055">
					<stop  offset="0" style="stop-color:#52BEC8"/>
					<stop  offset="0.0957" style="stop-color:#51B3BB"/>
					<stop  offset="0.269" style="stop-color:#4D979B"/>
					<stop  offset="0.5002" style="stop-color:#426D6D"/>
					<stop  offset="0.7771" style="stop-color:#2D3A37"/>
					<stop  offset="1" style="stop-color:#13110C"/>
				</linearGradient>
				<path class="st15" d="M865.75,384.48l29.3-29.31c-1.12-16.51-3.63-32.64-7.39-48.28l-49.89,49.89
					c3.7,10.31,1.51,22.26-6.75,30.52c-11.4,11.4-29.89,11.4-41.29,0c-11.41-11.4-11.41-29.89,0-41.3c8-8,19.47-10.26,29.55-7.03
					l58.99-58.98l-61.31-61.32c-5.02-5.01-5.02-13.14-0.01-18.15l11.48-11.48c-13.53-16.25-28.78-31.01-45.49-43.99l-35.44,35.45
					l37.86,37.86c5.01,5.01,5.01,13.14,0,18.14l-83.8,83.8c4.2,10.52,2.06,22.97-6.46,31.48c-11.4,11.4-29.89,11.4-41.3,0
					c-11.4-11.4-11.4-29.89,0-41.3c7.75-7.75,18.75-10.1,28.6-7.32l75.74-75.74l-37.86-37.86c-5-5.01-5-13.14,0-18.15l41.41-41.42
					c-7.95-5.11-16.16-9.84-24.61-14.18l-47.46,47.46c-5.01,5.01-13.13,5.01-18.14,0l-75.49-75.47l-3.66-3.66
					c-22.22,0.9-43.8,4.25-64.47,9.86c-0.12,0.03-0.24,0.07-0.36,0.1c34.58-2.72,63.16,21,72.46,53.49
					c3.26,11.37,4.04,23.09,4.08,34.89l-0.03,6.02c0,0-1.3,19.57,1.07,54.7c-0.04-0.01-0.08-0.02-0.12-0.03
					c0.23,3.08,0.51,6.16,0.79,9.24c0.02,0.19,0.03,0.37,0.04,0.56h0.01c1.29,13.46,3.18,26.87,5.86,40.13
					c5.92,29.36,16.74,68.94,47.01,82.26c-26.72,11.75-38.28,43.96-44.7,71.55l0,0c0,0-11.57,46.9-10.35,91.49l0.02-0.02
					c-0.03,7.75,0.25,15.56,0.35,23.37l36.52-36.49c5.01-5.01,13.13-5.01,18.14,0l98.38,98.39c46.6-28.73,84.49-70.2,108.83-119.56
					l-20.12-20.13l-56.63,56.63c-5.01,5.01-13.14,5.01-18.15,0l-65.98-65.98c-10.41,3.95-22.62,1.79-31.01-6.6
					c-11.4-11.4-11.4-29.89,0-41.3c11.4-11.4,29.89-11.4,41.3,0c7.88,7.88,10.17,19.11,7.17,29.07l57.59,57.59l56.63-56.62
					c5.01-5.01,13.14-5.01,18.14,0l22.07,22.06c6.2-16.32,10.97-33.34,14.16-50.91l-25.27-25.28
					C860.74,397.61,860.74,389.49,865.75,384.48z"/>
			</g>
		</g>
		<radialGradient id="SVGID_11_" cx="609.1613" cy="378.4931" r="386.7251" gradientUnits="userSpaceOnUse">
			<stop  offset="0" style="stop-color:#FFFFFF"/>
			<stop  offset="0.1628" style="stop-color:#FBFAFA"/>
			<stop  offset="0.2985" style="stop-color:#ECEBEB"/>
			<stop  offset="0.4244" style="stop-color:#D5D2D2"/>
			<stop  offset="0.5445" style="stop-color:#B6B2B2"/>
			<stop  offset="0.6604" style="stop-color:#918C8B"/>
			<stop  offset="0.7732" style="stop-color:#696461"/>
			<stop  offset="0.8835" style="stop-color:#3F3B39"/>
			<stop  offset="0.9892" style="stop-color:#171511"/>
			<stop  offset="1" style="stop-color:#13110C"/>
		</radialGradient>
		<path class="st16" d="M930.61,375.5c0,182.59-148.01,330.6-330.61,330.6c-182.59,0-330.6-148.02-330.6-330.6
			c0-182.59,148.01-330.6,330.6-330.6C782.6,44.89,930.61,192.91,930.61,375.5z"/>
	</g>
</g>
</svg>
