<svg xmlns="http://www.w3.org/2000/svg" width="127.189" height="164.934" viewBox="0 0 127.189 164.934">
  <path id="Path_131" data-name="Path 131" d="M643.89,317.895a183.81,183.81,0,0,1,7.75-42.809,149.6,149.6,0,0,1,10.062-24.3A139.915,139.915,0,0,1,675.85,228.7a153.491,153.491,0,0,1,38.52-34.922A168.925,168.925,0,0,1,737.243,181.5c3.944-1.774,7.971-3.359,12.043-4.8a118.532,118.532,0,0,1,12.4-3.7,118.374,118.374,0,0,0-12.235,4.152c-4,1.585-7.949,3.31-11.8,5.219a167.681,167.681,0,0,0-22.211,13.012,150.6,150.6,0,0,0-36.5,35.63,135.622,135.622,0,0,0-12.92,21.921,144.335,144.335,0,0,0-8.832,23.8,177.05,177.05,0,0,0-5.918,41.166h10.109l-13.608,20.039L634.5,317.895Z" transform="translate(-634.5 -173)" fill="#333" opacity="0.5"/>
</svg>
