<?xml version="1.0" encoding="utf-8"?>
<!-- Generator: Adobe Illustrator 24.0.0, SVG Export Plug-In . SVG Version: 6.00 Build 0)  -->
<svg version="1.1" id="Layer_1" xmlns="http://www.w3.org/2000/svg" xmlns:xlink="http://www.w3.org/1999/xlink" x="0px" y="0px"
	 viewBox="0 0 313.33 62.52" style="enable-background:new 0 0 313.33 62.52;" xml:space="preserve">
<style type="text/css">
	.st0{display:none;fill:#F2F2F2;}
	.st1{fill:#014A48;}
	.st2{fill:url(#SVGID_1_);}
	.st3{fill:#FFFFFF;}
</style>
<rect x="-40.47" y="-165.88" class="st0" width="394.27" height="394.27"/>
<g>
	<g>
		<g>
			<path class="st1" d="M90.52,13.05c5.26,1.7,7.87,5.42,7.87,11.06c0,3.62-1.17,6.49-3.62,8.61c-2.55,2.23-6.06,3.4-10.53,3.4
				h-5.42v10.37c0.32,0.11,1.38,0.32,3.08,0.64c0.53,0.11,0.74,0.48,0.74,1.01v2.23H69.89v-2.23c0-0.53,0.27-0.9,0.8-1.01l3.03-0.58
				V16.19c-1.7-0.32-2.71-0.53-3.03-0.64c-0.53-0.11-0.8-0.48-0.8-1.01v-2.23h14.35c2.45,0,4.47,0.27,6.27,0.8V13.05z M93.23,24
				c0-2.45-0.74-4.25-2.23-5.64c-1.49-1.38-3.72-2.02-6.75-2.02h-5.42v15.63h5.42c2.87,0,5.05-0.69,6.65-2.13
				c1.59-1.44,2.39-3.35,2.39-5.79L93.23,24z"/>
			<path class="st1" d="M112.32,23.05c1.59,0,3.08,0.27,4.47,0.8c1.38,0.53,2.55,1.28,3.51,2.29c0.96,1.01,1.81,2.29,2.34,3.77
				c0.53,1.49,0.85,3.19,0.85,5.1c0,0.74-0.05,1.28-0.21,1.49c-0.16,0.21-0.53,0.37-0.96,0.37h-17.86c0,1.7,0.21,3.19,0.64,4.47
				c0.43,1.28,1.06,2.23,1.81,3.08c0.74,0.85,1.59,1.49,2.66,1.91c1.06,0.43,2.13,0.64,3.4,0.64c1.17,0,2.23-0.11,3.08-0.37
				c0.85-0.27,1.6-0.58,2.23-0.9c0.64-0.32,1.17-0.58,1.59-0.85c0.43-0.27,0.74-0.43,1.06-0.43c0.43,0,0.69,0.16,0.9,0.48l1.33,1.75
				c-0.59,0.74-1.28,1.28-2.13,1.81c-0.85,0.53-1.65,1.01-2.61,1.33c-0.96,0.32-1.91,0.58-2.87,0.74c-0.96,0.16-1.97,0.27-2.92,0.27
				c-1.86,0-3.56-0.32-5.16-0.96c-1.59-0.64-2.92-1.59-4.09-2.82c-1.17-1.22-2.02-2.71-2.66-4.52c-0.64-1.81-0.96-3.83-0.96-6.17
				c0-1.91,0.32-3.62,0.9-5.21c0.58-1.59,1.44-3.08,2.5-4.25c1.06-1.17,2.39-2.13,3.99-2.82c1.59-0.69,3.35-1.01,5.26-1.01H112.32z
				 M112.48,26.5c-2.29,0-4.09,0.64-5.37,1.97c-1.28,1.33-2.13,3.19-2.45,5.53h14.62c0-1.06-0.16-2.07-0.48-2.98
				c-0.32-0.9-0.69-1.75-1.28-2.39c-0.58-0.64-1.33-1.17-2.18-1.54c-0.85-0.37-1.86-0.53-2.92-0.53L112.48,26.5z"/>
			<path class="st1" d="M135.02,28.95c1.97-3.99,4.68-6.01,8.19-6.01c1.38,0,2.61,0.32,3.67,0.96l-0.58,3.56
				c-0.11,0.43-0.37,0.69-0.69,0.69c-0.32,0-0.74-0.11-1.28-0.27c-0.53-0.16-1.22-0.27-2.18-0.27c-3.08,0-5.42,1.91-6.91,5.64v13.29
				c0.43,0.11,1.44,0.27,3.03,0.58c0.53,0.11,0.8,0.48,0.8,1.01v2.23h-12.39v-2.23c0-0.53,0.27-0.9,0.8-1.01l3.03-0.58V27.35
				c-1.7-0.32-2.71-0.53-3.03-0.64c-0.53-0.11-0.8-0.48-0.8-1.01v-2.23h3.83h2.71c0.53,0,0.8,0.05,1.01,0.27
				c0.21,0.21,0.32,0.53,0.43,1.01l0.32,4.2H135.02z"/>
			<path class="st1" d="M163.67,15.39c-3.62,0-5.42,2.02-5.42,6.11V24h7.76v3.4h-7.66v19.09c2.13,0.32,3.3,0.53,3.56,0.59
				c0.53,0.11,0.8,0.48,0.8,1.01v2.29h-13.18v-2.29c0-0.53,0.27-0.9,0.8-1.01l3.3-0.59V27.51l-2.98-0.37
				c-0.85-0.21-1.28-0.58-1.28-1.22V24h4.25v-2.6c0-3.08,0.8-5.48,2.5-7.18c1.65-1.7,3.88-2.5,6.75-2.5c1.17,0,2.29,0.21,3.35,0.53
				l-0.11,2.39c0,0.32-0.16,0.53-0.48,0.64s-0.69,0.11-1.22,0.11h-0.8H163.67z"/>
			<path class="st1" d="M185.58,24c1.59,0.64,2.98,1.6,4.09,2.76c1.12,1.17,1.97,2.66,2.55,4.36c0.58,1.7,0.9,3.62,0.9,5.74
				s-0.32,4.04-0.9,5.74c-0.59,1.7-1.44,3.19-2.55,4.36s-2.5,2.13-4.09,2.76c-1.59,0.64-3.35,0.96-5.32,0.96
				c-1.97,0-3.72-0.32-5.32-0.96c-1.6-0.64-2.98-1.59-4.09-2.76s-1.97-2.66-2.61-4.36c-0.64-1.7-0.85-3.62-0.85-5.74
				s0.21-4.04,0.85-5.74c0.64-1.7,1.49-3.19,2.61-4.36c1.12-1.17,2.5-2.13,4.09-2.76c1.59-0.64,3.35-0.96,5.32-0.96
				C182.23,23.05,183.98,23.37,185.58,24z M186.21,44.42c1.28-1.81,1.97-4.31,1.97-7.5c0-3.19-0.69-5.69-1.97-7.5
				c-1.28-1.81-3.3-2.66-5.95-2.66c-1.38,0-2.55,0.21-3.51,0.64c-0.96,0.43-1.81,1.17-2.45,2.02c-0.64,0.85-1.17,1.91-1.49,3.19
				c-0.32,1.28-0.53,2.76-0.53,4.36c0,1.59,0.21,2.98,0.53,4.25c0.32,1.28,0.85,2.34,1.49,3.19c0.64,0.85,1.49,1.49,2.45,1.91
				c0.96,0.43,2.13,0.74,3.51,0.74C182.92,47.08,184.94,46.23,186.21,44.42z"/>
			<path class="st1" d="M204.45,28.95c1.97-3.99,4.68-6.01,8.19-6.01c1.38,0,2.61,0.32,3.67,0.96l-0.58,3.56
				c-0.11,0.43-0.37,0.69-0.69,0.69c-0.32,0-0.74-0.11-1.28-0.27c-0.53-0.16-1.22-0.27-2.18-0.27c-3.08,0-5.42,1.91-6.91,5.64v13.29
				c0.43,0.11,1.44,0.27,3.03,0.58c0.53,0.11,0.8,0.48,0.8,1.01v2.23H196.1v-2.23c0-0.53,0.27-0.9,0.8-1.01l3.03-0.58V27.35
				c-1.7-0.32-2.71-0.53-3.03-0.64c-0.53-0.11-0.8-0.48-0.8-1.01v-2.23h3.83h2.71c0.53,0,0.8,0.05,1.01,0.27
				c0.21,0.21,0.32,0.53,0.43,1.01l0.32,4.2H204.45z"/>
			<path class="st1" d="M227.31,27.25c2.23-2.76,4.78-4.2,7.6-4.2c1.81,0,3.35,0.53,4.47,1.54c1.12,1.01,1.91,2.39,2.45,4.09
				c0.74-1.86,1.86-3.3,3.51-4.25c1.49-0.85,3.03-1.38,4.68-1.38c1.65,0,3.03,0.27,4.15,0.69c1.12,0.43,2.13,1.12,2.87,1.97
				c1.59,1.81,2.34,4.31,2.34,7.55v13.29c1.7,0.32,2.76,0.53,3.08,0.64c0.53,0.11,0.8,0.43,0.8,0.96v2.34h-8.56V33.31
				c0-2.13-0.43-3.72-1.38-4.78c-0.96-1.06-2.29-1.65-4.04-1.65c-1.6,0-2.98,0.53-4.04,1.59c-1.17,1.17-1.75,2.76-1.75,4.78v13.29
				c0.32,0.05,1.33,0.32,3.03,0.64c0.53,0.11,0.8,0.43,0.8,0.96v2.29h-8.56V33.25c0-4.25-1.7-6.38-5.1-6.38
				c-2.23,0-4.2,1.17-6.01,3.51v16.16l1.44,0.27c0.96,0.21,1.49,0.32,1.59,0.32c0.53,0.11,0.8,0.48,0.8,1.01v2.23h-12.39v-2.23
				c0-0.53,0.21-0.9,0.74-1.01l3.08-0.58V27.35c-1.7-0.32-2.76-0.53-3.08-0.64c-0.53-0.11-0.74-0.48-0.74-1.01v-2.23h3.83h2.76
				c0.64,0,1.06,0.32,1.28,0.96l0.37,2.76V27.25z"/>
			<path class="st1" d="M275.32,16.14v30.36c1.7,0.32,2.82,0.53,3.24,0.64c0.43,0.11,0.64,0.43,0.64,0.96v2.29h-12.81v-2.29
				c0-0.53,0.21-0.9,0.74-1.01l3.08-0.59V16.14c-1.7-0.32-2.76-0.53-3.19-0.64c-0.43-0.11-0.64-0.43-0.64-0.96v-2.23h12.81v2.23
				c0,0.53-0.27,0.9-0.8,1.01L275.32,16.14z"/>
			<path class="st1" d="M313.33,12.31v8.4h-2.61c-0.64,0-0.9-0.16-1.01-0.53c-0.11-0.37-0.32-1.49-0.53-3.51h-8.93v29.88
				c0,0,0.21,0,0.64,0.11c1.38,0.27,2.29,0.43,2.66,0.53c0.37,0.11,0.53,0.43,0.53,0.96v2.23h-12.87v-2.23
				c0-0.53,0.32-0.96,0.9-1.06c0.58-0.11,1.54-0.32,2.92-0.59V16.61h-8.98c-0.21,2.02-0.37,3.19-0.48,3.56
				c-0.11,0.37-0.43,0.53-1.06,0.53h-2.55v-8.4h28.71h1.81H313.33z"/>
		</g>
	</g>
	<g>
		<linearGradient id="SVGID_1_" gradientUnits="userSpaceOnUse" x1="-0.6993" y1="63.2196" x2="58.4229" y2="4.0974">
			<stop  offset="0" style="stop-color:#020203"/>
			<stop  offset="0.2647" style="stop-color:#1C3439"/>
			<stop  offset="0.529" style="stop-color:#30676D"/>
			<stop  offset="0.7468" style="stop-color:#3D939A"/>
			<stop  offset="0.9099" style="stop-color:#46B0B9"/>
			<stop  offset="1" style="stop-color:#4ABCC5"/>
		</linearGradient>
		<path class="st2" d="M61.07,27.21l-1.84-0.48c-0.7-0.18-1.24-0.73-1.4-1.43c-0.16-0.73-0.36-1.45-0.58-2.15
			c-0.21-0.69-0.02-1.44,0.5-1.94l1.36-1.34c0.63-0.62,0.76-1.59,0.32-2.35l-2.18-3.77c-0.44-0.76-1.34-1.13-2.2-0.9l-1.84,0.51
			c-0.69,0.19-1.44-0.01-1.93-0.54c-0.5-0.54-1.03-1.07-1.57-1.57c-0.53-0.49-0.73-1.24-0.54-1.93l0.51-1.84
			c0.24-0.85-0.13-1.75-0.9-2.2L45.01,3.1c-0.76-0.44-1.73-0.31-2.35,0.32l-1.34,1.36c-0.51,0.51-1.26,0.71-1.94,0.5
			c-0.71-0.22-1.42-0.41-2.15-0.58c-0.7-0.16-1.25-0.7-1.43-1.4l-0.48-1.84C35.09,0.6,34.32,0,33.44,0h-4.35
			c-0.88,0-1.65,0.6-1.88,1.45L26.73,3.3C26.55,3.99,26,4.54,25.3,4.7c-0.73,0.16-1.45,0.36-2.15,0.58
			c-0.69,0.21-1.44,0.02-1.94-0.5l-1.34-1.36c-0.62-0.63-1.59-0.76-2.35-0.32l-3.77,2.18c-0.76,0.44-1.13,1.34-0.9,2.2l0.51,1.84
			c0.19,0.69-0.01,1.44-0.54,1.93c-0.54,0.5-1.07,1.03-1.57,1.57c-0.49,0.53-1.24,0.73-1.93,0.54l-1.84-0.51
			c-0.85-0.24-1.75,0.13-2.2,0.9L3.1,17.51c-0.44,0.76-0.31,1.73,0.32,2.35l1.36,1.34c0.51,0.51,0.71,1.25,0.5,1.94
			c-0.22,0.71-0.41,1.42-0.58,2.15c-0.16,0.7-0.7,1.25-1.4,1.43l-1.84,0.48C0.6,27.43,0,28.2,0,29.08v4.35
			c0,0.88,0.6,1.65,1.45,1.88l1.84,0.48c0.7,0.18,1.24,0.73,1.4,1.43c0.16,0.73,0.36,1.45,0.58,2.15c0.21,0.69,0.02,1.44-0.5,1.94
			l-1.36,1.34c-0.63,0.62-0.76,1.59-0.32,2.35l2.18,3.77c0.44,0.76,1.34,1.13,2.2,0.9l1.84-0.51c0.69-0.19,1.44,0.01,1.93,0.54
			c0.5,0.54,1.03,1.07,1.57,1.57c0.53,0.49,0.73,1.24,0.54,1.93l-0.51,1.84c-0.24,0.85,0.13,1.75,0.9,2.2l3.77,2.18
			c0.76,0.44,1.73,0.31,2.35-0.32l1.34-1.36c0.51-0.51,1.25-0.71,1.94-0.5c0.71,0.22,1.42,0.41,2.15,0.58
			c0.7,0.16,1.25,0.7,1.43,1.4l0.48,1.84c0.22,0.85,0.99,1.45,1.88,1.45h4.35c0.88,0,1.65-0.6,1.88-1.45l0.48-1.84
			c0.18-0.7,0.73-1.24,1.43-1.4c0.73-0.16,1.45-0.36,2.15-0.58c0.69-0.21,1.44-0.02,1.94,0.5l1.34,1.36
			c0.62,0.63,1.59,0.76,2.35,0.32l3.77-2.18c0.76-0.44,1.13-1.34,0.9-2.2l-0.51-1.84c-0.19-0.69,0.01-1.44,0.54-1.93
			c0.54-0.5,1.07-1.03,1.57-1.57c0.49-0.53,1.24-0.73,1.93-0.54l1.84,0.51c0.85,0.24,1.75-0.13,2.2-0.9l2.18-3.77
			c0.44-0.76,0.31-1.73-0.32-2.35l-1.36-1.34c-0.51-0.51-0.71-1.25-0.5-1.94c0.22-0.71,0.41-1.42,0.58-2.15
			c0.16-0.7,0.7-1.25,1.4-1.43l1.84-0.48c0.85-0.22,1.45-0.99,1.45-1.88v-4.35C62.52,28.2,61.92,27.43,61.07,27.21z"/>
		<g>
			<g>
				<path class="st3" d="M29.61,47.47c0.14-0.51,0.22-1.02,0.26-1.54c-0.02,0-0.04,0-0.06,0c-1.02,0-1.99-0.26-2.95-0.6
					c-1.4-0.49-2.61-1.3-3.64-2.35c-0.82-0.84-1.44-1.82-1.92-2.9c-0.36-0.8-0.6-1.63-0.72-2.49c-0.07-0.47-0.1-0.96-0.06-1.43
					c0.04-0.52,0.69-0.94,1.09-0.76c0.4,0.18,0.67,0.5,0.74,0.94c0.1,0.55,0.12,1.12,0.26,1.65c0.15,0.57,0.38,1.12,0.62,1.66
					c0.19,0.41,0.4,0.83,0.68,1.18c0.41,0.51,0.85,1.01,1.35,1.43c0.49,0.41,1.06,0.74,1.63,1.03c0.44,0.22,0.94,0.36,1.43,0.46
					c0.52,0.11,1.04,0.2,1.57,0.26c-0.01-0.51-0.02-1.02-0.01-1.53c0.01-0.31,0.02-0.62,0.04-0.93c-0.34-0.07-0.67-0.17-1-0.3
					c-1.87-0.75-3.07-2.09-3.51-4.08c-0.11-0.51-0.09-1.06-0.21-1.57c-0.21-0.85-0.6-1.61-1.34-2.13c-0.36-0.25-0.77-0.46-1.16-0.66
					c-0.15-0.07-0.33-0.09-0.5-0.1c-1.1-0.1-2.13-0.01-3.07,0.69c-0.65,0.48-1.06,1.11-1.3,1.83c-0.15,0.45-0.13,0.97-0.13,1.46
					c0,0.42,0.04,0.84,0.11,1.25c0.08,0.45,0.2,0.89,0.31,1.33c0.29,1.13,0.75,2.19,1.35,3.17c0.86,1.4,1.97,2.58,3.37,3.46
					c0.75,0.47,1.54,0.89,2.33,1.28c0.52,0.25,1.1,0.38,1.64,0.6c0.25,0.1,0.5,0.26,0.68,0.46c0.45,0.51,0.29,0.9-0.34,1.34
					c-0.06,0.04-0.13,0.07-0.2,0.11c-0.12,0-0.25,0-0.37,0c-0.6-0.21-1.2-0.4-1.79-0.63c-1.37-0.52-2.63-1.23-3.78-2.13
					c-1.13-0.89-2.12-1.92-2.92-3.12c-0.37-0.56-0.7-1.16-0.98-1.77c-0.35-0.79-0.67-1.61-0.93-2.43c-0.39-1.22-0.52-2.48-0.42-3.75
					c0.11-1.38,0.67-2.56,1.7-3.51c0.95-0.88,2.05-1.37,3.32-1.52c1.95-0.24,3.59,0.4,4.92,1.8c0.84,0.87,1.29,1.95,1.42,3.17
					c0.05,0.46,0.14,0.92,0.24,1.37c0.18,0.76,0.62,1.36,1.26,1.82c0.44,0.32,0.93,0.54,1.43,0.66c0.09-0.85,0.22-1.71,0.39-2.55
					c0.02-0.09,0.04-0.18,0.06-0.27c-0.15-0.13-0.28-0.31-0.34-0.5c-0.07-0.23-0.11-0.48-0.13-0.72c-0.06-1.07-0.38-2.05-0.87-3
					c-0.79-1.53-2.05-2.58-3.5-3.43c-0.7-0.41-1.45-0.72-2.22-0.85c-0.85-0.15-1.73-0.34-2.62-0.12c-0.55,0.14-1.13,0.14-1.68,0.28
					c-0.55,0.14-1.11,0.34-1.61,0.59c-0.61,0.31-1.21,0.66-1.74,1.09c-0.46,0.37-0.85,0.85-1.22,1.31c-0.66,0.83-1.13,1.78-1.41,2.8
					c-0.19,0.68-0.2,1.41-0.28,2.11c0.03,0.75,0.09,1.49,0.22,2.21c0.48,3.23,1.92,6.48,4.22,8.83c0.96,0.98,2.04,1.74,3.27,2.35
					c1.23,0.62,2.52,1.12,3.85,1.48C26.91,51.47,28.95,49.79,29.61,47.47z"/>
				<path class="st3" d="M24.45,11.22c-1.52,0.41-2.97,1-4.33,1.72c0.62-0.08,1.24-0.16,1.85-0.14c0.89,0.03,1.79,0.16,2.67,0.29
					c0.8,0.12,1.61,0.23,2.38,0.46c0.77,0.23,1.54,0.47,2.31,0.74C28.49,12.37,26.64,11.05,24.45,11.22z"/>
				<path class="st3" d="M17.92,17.74c0.84-0.16,1.69-0.28,2.54-0.36c0.57-0.06,1.14-0.04,1.71-0.03c0.45,0.01,0.9,0.03,1.35,0.08
					c0.55,0.06,1.11,0.13,1.66,0.25c0.84,0.18,1.68,0.36,2.5,0.62c0.74,0.23,1.49,0.48,2.2,0.8c0.01-0.87,0.06-1.75-0.01-2.61
					c-0.15-0.06-0.29-0.13-0.44-0.19c-0.58-0.24-1.18-0.42-1.78-0.61c-0.65-0.2-1.3-0.38-1.96-0.53c-0.42-0.1-0.86-0.15-1.29-0.21
					c-0.58-0.07-1.16-0.16-1.74-0.17c-0.79-0.02-1.57,0.03-2.36,0.06c-0.38,0.02-0.76,0.05-1.13,0.1c-0.85,0.12-1.72,0.19-2.56,0.39
					c-0.01,0-0.02,0-0.02,0.01c-1.31,1.1-2.47,2.35-3.48,3.73c0.64-0.28,1.3-0.51,1.97-0.7C16.01,18.1,16.97,17.92,17.92,17.74z"/>
				<path class="st3" d="M12.48,24.55c1.18-0.83,2.44-1.48,3.81-1.93c1-0.33,2.03-0.57,3.08-0.68c0.5-0.05,1-0.09,1.49-0.12
					c0.37-0.03,0.74-0.07,1.1-0.06c1.07,0.05,2.13,0.15,3.18,0.39c1.63,0.38,3.14,1.02,4.54,1.91c0.2,0.13,0.4,0.26,0.59,0.39
					c-0.18-1.08-0.29-2.17-0.35-3.27c-0.17-0.08-0.34-0.16-0.51-0.24c-0.73-0.32-1.5-0.57-2.26-0.82c-0.65-0.21-1.32-0.38-1.99-0.53
					c-0.45-0.1-0.92-0.17-1.39-0.2c-0.8-0.05-1.6-0.1-2.4-0.1c-1.09,0.01-2.19,0.01-3.26,0.27c-0.83,0.2-1.68,0.31-2.48,0.59
					c-0.97,0.33-1.91,0.74-2.82,1.21c-0.56,0.29-1.1,0.6-1.63,0.94c-0.73,1.52-1.28,3.15-1.62,4.85
					C10.42,26.16,11.41,25.31,12.48,24.55z"/>
				<path class="st3" d="M12.42,31.28c0.67-1.1,1.5-2.04,2.55-2.81c1.08-0.8,2.27-1.35,3.53-1.76c1.33-0.44,2.71-0.54,4.09-0.42
					c1.25,0.11,2.44,0.5,3.58,1.06c1.13,0.56,2.16,1.25,3.05,2.12c0.73,0.71,1.31,1.56,1.76,2.49c0.25,0.52,0.44,1.04,0.6,1.58
					c0.49-0.97,0.93-1.8,1.89-2.25c-0.01-0.04-0.03-0.07-0.05-0.11c-1.24-0.94-1.82-2.28-2.46-3.78c-0.18-0.18-0.37-0.36-0.57-0.53
					c-0.97-0.82-2.06-1.49-3.25-1.96c-0.78-0.31-1.56-0.61-2.35-0.86c-0.46-0.15-0.95-0.23-1.43-0.27c-0.86-0.07-1.72-0.1-2.58-0.13
					c-0.83-0.03-1.64,0.16-2.44,0.34c-1.18,0.26-2.28,0.72-3.34,1.27c-1.35,0.69-2.56,1.56-3.6,2.66c-0.8,0.85-1.51,1.79-1.96,2.88
					c-0.08,0.2-0.17,0.41-0.25,0.62c0.03,3.64,1,7.06,2.68,10.02c-0.22-0.91-0.49-1.8-0.65-2.72c-0.14-0.8-0.23-1.63-0.19-2.44
					C11.08,34.52,11.49,32.82,12.42,31.28z"/>
			</g>
			<g>
				<path class="st3" d="M31.29,48.2c-0.01,0.04-0.02,0.07-0.03,0.11c-0.7,2.43-2.84,4.21-5.43,4.01c0.01,0,0.02,0,0.02,0.01
					c1.83,0.49,3.74,0.76,5.73,0.76c3.48,0,6.77-0.81,9.69-2.26l-6.3-6.3L31.29,48.2z"/>
				<path class="st3" d="M33.46,9.5l3.83,3.83l2.36-2.36C37.71,10.19,35.63,9.69,33.46,9.5z"/>
				<path class="st3" d="M51.16,31.93l2.2-2.2c-0.08-1.24-0.27-2.44-0.55-3.62l-3.74,3.74c0.28,0.77,0.11,1.67-0.51,2.29
					c-0.85,0.85-2.24,0.85-3.09,0c-0.85-0.85-0.85-2.24,0-3.09c0.6-0.6,1.46-0.77,2.21-0.53l4.42-4.42l-4.59-4.59
					c-0.38-0.38-0.38-0.98,0-1.36l0.86-0.86c-1.01-1.22-2.16-2.32-3.41-3.29l-2.65,2.65l2.84,2.84c0.38,0.38,0.38,0.98,0,1.36
					l-6.28,6.28c0.31,0.79,0.15,1.72-0.48,2.36c-0.85,0.85-2.24,0.85-3.09,0c-0.85-0.85-0.85-2.24,0-3.09
					c0.58-0.58,1.4-0.76,2.14-0.55l5.67-5.67l-2.84-2.84c-0.38-0.38-0.38-0.98,0-1.36l3.1-3.1c-0.6-0.38-1.21-0.74-1.84-1.06
					l-3.55,3.55c-0.38,0.38-0.98,0.38-1.36,0l-5.65-5.65l-0.27-0.27c-1.66,0.07-3.28,0.32-4.83,0.74c-0.01,0-0.02,0.01-0.03,0.01
					c2.59-0.2,4.73,1.57,5.43,4.01c0.24,0.85,0.3,1.73,0.3,2.61l0,0.45c0,0-0.1,1.47,0.08,4.1c0,0-0.01,0-0.01,0
					c0.02,0.23,0.04,0.46,0.06,0.69c0,0.01,0,0.03,0,0.04h0c0.1,1.01,0.24,2.01,0.44,3c0.44,2.2,1.25,5.16,3.52,6.16
					c-2,0.88-2.87,3.29-3.35,5.36l0,0c0,0-0.87,3.51-0.78,6.85l0,0c0,0.58,0.02,1.17,0.03,1.75l2.73-2.73
					c0.38-0.38,0.98-0.38,1.36,0l7.37,7.37c3.49-2.15,6.33-5.26,8.15-8.95l-1.51-1.51l-4.24,4.24c-0.38,0.38-0.98,0.38-1.36,0
					l-4.94-4.94c-0.78,0.3-1.69,0.13-2.32-0.49c-0.85-0.85-0.85-2.24,0-3.09c0.85-0.85,2.24-0.85,3.09,0
					c0.59,0.59,0.76,1.43,0.54,2.18l4.31,4.31l4.24-4.24c0.38-0.38,0.98-0.38,1.36,0L51.99,39c0.46-1.22,0.82-2.5,1.06-3.81
					l-1.89-1.89C50.79,32.92,50.79,32.31,51.16,31.93z"/>
			</g>
		</g>
	</g>
</g>
</svg>
