<svg xmlns="http://www.w3.org/2000/svg" width="220" height="220" viewBox="0 0 220 220">
  <path id="FontAwsome_play-circle_" data-name="FontAwsome (play-circle)" d="M169.319,110.016,91.254,62.556a10.664,10.664,0,0,0-15.835,9.315v92.258a10.671,10.671,0,0,0,15.835,9.315l78.064-44.8A10.679,10.679,0,0,0,169.319,110.016ZM228,118A110,110,0,1,0,118,228,109.981,109.981,0,0,0,228,118ZM29.29,118A88.71,88.71,0,1,1,118,206.71,88.685,88.685,0,0,1,29.29,118Z" transform="translate(-8 -8)" fill="#fff"/>
</svg>
