<svg id="Layer_1" data-name="Layer 1" xmlns="http://www.w3.org/2000/svg" width="1316" height="468.625" viewBox="0 0 1316 468.625"><defs><style>.cls-1{fill:#48c2c8;}</style></defs><title>qautations</title><g id="Group_87" data-name="Group 87"><path id="FontAwsome_quote-right_" data-name="FontAwsome quote-right " class="cls-1" d="M1308.9689,0h-18.75a7.033,7.033,0,0,0-7.031,7.031v18.75a7.033,7.033,0,0,0,7.031,7.031h11.719v9.375a9.3839,9.3839,0,0,1-9.375,9.375h-1.172a3.507,3.507,0,0,0-3.516,3.498v7.05a3.5071,3.5071,0,0,0,3.498,3.516h1.19A23.431,23.431,0,0,0,1316,42.201V7.031A7.0329,7.0329,0,0,0,1308.9689,0Zm-42.188,0h-18.75A7.033,7.033,0,0,0,1241,7.031v18.75a7.033,7.033,0,0,0,7.031,7.031h11.719v9.375a9.3839,9.3839,0,0,1-9.375,9.375H1249.2a3.507,3.507,0,0,0-3.516,3.498v7.05a3.507,3.507,0,0,0,3.499,3.515h1.192a23.4309,23.4309,0,0,0,23.438-23.424V7.031A7.033,7.033,0,0,0,1266.7809,0Z"/><path id="FontAwsome_quote-left_" data-name="FontAwsome quote-left " class="cls-1" d="M67.969,435.813H56.25v-9.375a9.3841,9.3841,0,0,1,9.375-9.375H66.8a3.507,3.507,0,0,0,3.516-3.498v-7.049A3.507,3.507,0,0,0,66.818,403H65.625a23.431,23.431,0,0,0-23.438,23.424v35.17a7.0329,7.0329,0,0,0,7.031,7.031h18.75A7.033,7.033,0,0,0,75,461.594v-18.75A7.0329,7.0329,0,0,0,67.969,435.813Zm-42.187,0H14.062v-9.375a9.3841,9.3841,0,0,1,9.375-9.375h1.172a3.507,3.507,0,0,0,3.516-3.498v-7.049A3.507,3.507,0,0,0,24.627,403h-1.19A23.431,23.431,0,0,0,0,426.425v35.169a7.0329,7.0329,0,0,0,7.031,7.031h18.75a7.0329,7.0329,0,0,0,7.031-7.031v-18.75a7.0329,7.0329,0,0,0-7.031-7.031Z"/></g></svg>