<svg xmlns="http://www.w3.org/2000/svg" width="132.013" height="171.19" viewBox="0 0 132.013 171.19">
  <path id="Path_130" data-name="Path 130" d="M756.767,323.391a190.78,190.78,0,0,0-8.044-44.433,155.282,155.282,0,0,0-10.444-25.219,145.227,145.227,0,0,0-14.684-22.923,159.314,159.314,0,0,0-39.981-36.247,175.332,175.332,0,0,0-23.741-12.748c-4.094-1.841-8.273-3.486-12.5-4.979A123.025,123.025,0,0,0,634.5,173a122.861,122.861,0,0,1,12.7,4.31c4.155,1.645,8.251,3.436,12.252,5.417A174.04,174.04,0,0,1,682.5,196.233a156.317,156.317,0,0,1,37.889,36.981,140.771,140.771,0,0,1,13.41,22.752,149.815,149.815,0,0,1,9.167,24.7,183.767,183.767,0,0,1,6.142,42.727H738.619l14.124,20.8,13.77-20.8Z" transform="translate(-634.5 -173)" fill="#333" opacity="0.5"/>
</svg>
