<svg id="Layer_1" data-name="Layer 1" xmlns="http://www.w3.org/2000/svg" xmlns:xlink="http://www.w3.org/1999/xlink" width="839.7176" height="1516.6851" viewBox="0 0 839.7176 1516.6851"><defs><style>.cls-1{fill:none;}.cls-2{clip-path:url(#clip-path);}.cls-3{fill:url(#linear-gradient);}</style><clipPath id="clip-path"><path id="Shape_10_copy_2" data-name="Shape 10 copy 2" class="cls-1" d="M257.711,1272.7283,46.028,846.8452C-62,629.5042,26.616,365.7452,243.9559,257.7122l425.883-211.684c217.341-108.027,481.1-19.412,589.133,197.93L1470.6549,669.84c108.028,217.34,19.413,481.1-197.928,589.132L846.843,1470.6572C629.502,1578.6853,365.739,1490.0693,257.711,1272.7283Z"/></clipPath><linearGradient id="linear-gradient" x1="158.1271" y1="1358.3382" x2="158.9091" y2="1356.2022" gradientTransform="matrix(1516.6831, 0, 0, -1516.6843, -239477.9307, 2059815.3156)" gradientUnits="userSpaceOnUse"><stop offset="0" stop-color="#48c2c8"/><stop offset="0.456" stop-color="#a4e1e4" stop-opacity="0.494"/><stop offset="1" stop-color="#030303"/></linearGradient></defs><title>TrackYourBusinessPlan-01</title><g class="cls-2"><image width="1600" height="953" transform="translate(-544.0528 -61) scale(1.6555)" xlink:href="bigstock-Future-Artificial-Intelligence-349070080.jpg"/></g><path id="Shape_10_copy_2-2" data-name="Shape 10 copy 2-2" class="cls-3" d="M257.711,1272.7283,46.028,846.8452C-62,629.5042,26.616,365.7452,243.9559,257.7122l425.883-211.684c217.341-108.027,481.1-19.412,589.133,197.93L1470.6549,669.84c108.028,217.34,19.413,481.1-197.928,589.132L846.843,1470.6572C629.502,1578.6853,365.739,1490.0693,257.711,1272.7283Z"/></svg>