<?xml version="1.0" encoding="utf-8"?>
<!-- Generator: Adobe Illustrator 24.0.0, SVG Export Plug-In . SVG Version: 6.00 Build 0)  -->
<svg version="1.1" id="Layer_1" xmlns="http://www.w3.org/2000/svg" xmlns:xlink="http://www.w3.org/1999/xlink" x="0px" y="0px"
	 viewBox="0 0 1516.7 1516.7" style="enable-background:new 0 0 1516.7 1516.7;" xml:space="preserve">
<style type="text/css">
	.st0{clip-path:url(#SVGID_2_);}
	.st1{fill:url(#Shape_10_copy_2-2_1_);}
</style>
<title>TrackYourBusinessPlan</title>
<g>
	<defs>
		<path id="SVGID_1_" d="M257.7,1272.7L46,846.8C-62,629.5,26.6,365.7,244,257.7L669.8,46C887.2-62,1150.9,26.6,1259,244
			l211.7,425.9c108,217.3,19.4,481.1-197.9,589.1l-425.9,211.7C629.5,1578.7,365.7,1490.1,257.7,1272.7z"/>
	</defs>
	<clipPath id="SVGID_2_">
		<use xlink:href="#SVGID_1_"  style="overflow:visible;"/>
	</clipPath>
	<g class="st0">
		
			<image style="overflow:visible;enable-background:new    ;" width="1600" height="953" xlink:href="bigstock-Future-Artificial-Intelligence-349070080.jpg"  transform="matrix(1.6555 0 0 1.6555 -544.0528 -61)">
		</image>
	</g>
</g>
<linearGradient id="Shape_10_copy_2-2_1_" gradientUnits="userSpaceOnUse" x1="316.0229" y1="-0.4424" x2="316.8049" y2="1.6937" gradientTransform="matrix(1516.6831 0 0 1516.6843 -478955.875 316.0601)">
	<stop  offset="0" style="stop-color:#48C2C8"/>
	<stop  offset="0.456" style="stop-color:#A4E1E4;stop-opacity:0.494"/>
	<stop  offset="1" style="stop-color:#030303"/>
</linearGradient>
<path id="Shape_10_copy_2-2" class="st1" d="M257.7,1272.7L46,846.8C-62,629.5,26.6,365.7,244,257.7L669.8,46
	C887.2-62,1150.9,26.6,1259,244l211.7,425.9c108,217.3,19.4,481.1-197.9,589.1l-425.9,211.7C629.5,1578.7,365.7,1490.1,257.7,1272.7
	z"/>
</svg>
